<?xml version="1.0" standalone="no"?>
<!DOCTYPE svg PUBLIC "-//W3C//DTD SVG 20010904//EN"
 "http://www.w3.org/TR/2001/REC-SVG-20010904/DTD/svg10.dtd">
<svg version="1.0" xmlns="http://www.w3.org/2000/svg"
 width="1200.000000pt" height="962.000000pt" viewBox="0 0 1200.000000 962.000000"
 preserveAspectRatio="xMidYMid meet">

<g transform="translate(0.000000,962.000000) scale(0.100000,-0.100000)"
fill="#000000" stroke="none">
<path d="M5955 9613 c-159 -20 -296 -70 -421 -152 -507 -334 -812 -1194 -884
-2491 -13 -237 -13 -845 0 -1076 63 -1118 296 -1897 689 -2307 143 -149 291
-240 473 -289 73 -20 105 -23 273 -22 157 0 208 4 292 22 450 97 803 357 821
604 7 88 -16 135 -116 242 -182 194 -284 363 -338 561 -15 55 -19 103 -19 220
0 143 2 154 33 244 43 124 99 217 186 308 170 180 359 267 576 265 544 -3 881
-468 809 -1120 -36 -335 -153 -639 -381 -993 -37 -58 -68 -113 -68 -122 0 -31
13 -47 38 -47 18 0 53 27 131 103 58 57 648 627 1311 1266 663 640 1237 1195
1275 1235 82 84 128 165 151 262 29 126 4 282 -63 391 -30 49 -2752 2688
-2790 2706 -28 13 -53 -5 -53 -39 0 -13 29 -67 64 -121 148 -227 260 -460 321
-673 225 -785 -80 -1412 -706 -1447 -137 -8 -230 12 -364 77 -209 101 -357
269 -439 499 -29 82 -31 94 -31 241 0 132 3 167 23 235 52 181 163 362 329
538 105 111 127 156 121 246 -15 209 -273 437 -628 555 -203 67 -455 100 -615
79z"/>
<path d="M4022 9378 c-116 -109 -2492 -2405 -2605 -2518 -97 -98 -123 -131
-152 -192 -95 -200 -59 -426 92 -585 32 -34 603 -587 1268 -1229 666 -642
1263 -1219 1327 -1281 100 -99 120 -114 145 -111 23 2 29 8 31 34 2 23 -6 43
-36 80 -727 922 -1042 1783 -1042 2853 0 1064 319 1961 1009 2836 71 90 85
127 59 153 -21 21 -38 14 -96 -40z"/>
<path d="M7384 2041 c-82 -23 -140 -59 -198 -120 -86 -92 -119 -198 -132 -418
l-7 -123 -64 0 c-97 0 -142 -33 -143 -102 0 -62 6 -68 70 -68 31 0 78 -3 104
-6 l46 -7 0 -416 c0 -229 -5 -434 -10 -455 -13 -57 -39 -88 -98 -116 -56 -26
-69 -49 -58 -95 9 -36 69 -62 167 -75 221 -27 489 4 519 61 6 10 10 32 10 49
0 33 -9 39 -92 60 -26 7 -59 24 -72 37 -49 49 -51 68 -51 523 l0 425 110 -3
c132 -5 184 7 219 49 26 31 36 98 18 126 -6 9 -58 13 -182 15 l-175 3 -3 104
c-8 305 47 411 214 411 74 0 149 -31 141 -58 -30 -90 -31 -99 -13 -146 27 -70
73 -101 150 -101 105 0 160 59 160 170 0 177 -188 296 -463 294 -69 0 -127 -7
-167 -18z"/>
<path d="M773 1981 c-369 -59 -657 -346 -744 -742 -56 -256 -26 -515 85 -744
113 -231 300 -390 541 -460 365 -106 768 46 912 343 33 69 37 85 38 157 0 86
-19 137 -67 182 -72 67 -203 54 -271 -27 -22 -26 -38 -72 -39 -115 -2 -52 7
-80 37 -125 l36 -53 -28 -40 c-59 -85 -171 -143 -297 -153 -138 -12 -254 32
-356 135 -78 79 -122 152 -161 263 -79 230 -80 564 -2 783 60 167 162 299 277
355 188 93 420 40 537 -122 l20 -28 -33 -46 c-27 -38 -33 -56 -36 -114 -4 -58
-1 -75 19 -110 26 -45 82 -84 138 -94 89 -16 187 56 211 154 33 138 -45 312
-195 433 -73 59 -216 129 -307 152 -80 19 -242 27 -315 16z"/>
<path d="M2333 1409 c-156 -19 -304 -90 -359 -172 -40 -60 -46 -157 -12 -206
38 -56 72 -75 131 -75 106 0 163 66 161 186 l-2 67 69 15 c179 41 306 -9 344
-136 10 -34 15 -92 15 -170 l0 -118 -37 15 c-49 21 -192 45 -263 45 -97 0
-229 -28 -307 -65 -134 -63 -212 -160 -235 -293 -52 -306 246 -552 584 -481
71 15 181 67 243 114 30 24 51 33 53 26 11 -34 73 -98 117 -120 70 -36 180
-37 244 -1 52 30 79 63 91 113 8 36 7 37 -29 43 -58 11 -97 31 -125 64 l-26
32 0 311 c0 363 -10 510 -39 588 -37 99 -144 176 -280 204 -90 18 -251 25
-338 14z m264 -747 c75 -39 83 -58 83 -192 l0 -118 -41 -37 c-128 -116 -310
-120 -408 -9 -77 88 -81 218 -9 300 58 66 112 84 238 81 74 -3 104 -8 137 -25z"/>
<path d="M4013 1406 c-23 -8 -57 -23 -76 -35 -36 -22 -121 -109 -148 -151
l-16 -24 -13 39 c-47 150 -140 196 -292 144 -75 -25 -143 -70 -163 -109 -8
-16 -15 -50 -15 -76 l0 -47 38 7 c57 9 110 -10 132 -47 19 -30 20 -53 20 -407
0 -370 0 -376 -22 -420 -18 -35 -34 -51 -78 -72 -30 -15 -58 -36 -62 -48 -12
-32 11 -72 53 -93 70 -34 287 -47 449 -26 126 15 168 46 156 111 -6 32 -10 36
-65 51 -73 20 -117 65 -126 129 -4 24 -5 174 -3 333 4 274 6 294 28 355 17 46
37 78 71 112 58 58 80 61 97 14 43 -119 207 -138 283 -34 117 162 -47 356
-248 294z"/>
<path d="M5138 1406 c-87 -31 -190 -116 -221 -183 -6 -13 -13 -23 -17 -23 -3
0 -14 25 -24 55 -21 68 -65 120 -113 136 -85 28 -236 -17 -309 -92 -34 -35
-38 -44 -39 -92 l0 -52 62 0 c72 -1 106 -24 123 -84 12 -44 13 -678 1 -740
-12 -60 -38 -92 -99 -121 -57 -27 -72 -53 -56 -98 5 -14 25 -33 44 -43 51 -26
206 -42 350 -36 208 9 264 33 258 110 -3 41 -3 41 -65 63 -129 44 -128 41
-128 409 0 330 7 384 63 475 27 43 82 90 107 90 7 0 23 -21 36 -47 47 -95 166
-120 245 -51 60 53 82 146 50 221 -38 92 -164 140 -268 103z"/>
<path d="M6057 1409 c-156 -21 -267 -77 -382 -193 -136 -137 -196 -292 -198
-511 -1 -141 14 -212 72 -330 103 -210 318 -349 561 -362 260 -14 493 91 545
246 19 57 15 102 -11 140 l-16 23 -32 -30 c-178 -166 -481 -170 -654 -8 -74
69 -118 165 -136 294 l-6 42 434 0 434 0 16 41 c26 63 31 173 12 253 -66 280
-321 438 -639 395z m181 -198 c89 -45 152 -144 152 -238 0 -86 9 -83 -306 -83
l-274 0 0 35 c0 82 60 206 125 257 76 59 217 73 303 29z"/>
<path d="M8410 1411 c-288 -41 -520 -245 -587 -518 -25 -103 -22 -277 6 -378
54 -193 177 -347 345 -429 109 -53 184 -70 316 -70 137 0 210 17 330 76 67 32
102 58 165 122 92 92 141 176 176 301 31 109 31 294 1 408 -63 232 -239 409
-465 466 -89 23 -212 32 -287 22z m175 -192 c158 -59 248 -248 249 -519 0
-240 -64 -393 -194 -464 -144 -79 -312 -19 -398 141 -98 185 -109 503 -23 678
76 153 221 218 366 164z"/>
<path d="M11715 1406 c-22 -7 -51 -18 -64 -25 -37 -20 -110 -91 -143 -138 -33
-48 -42 -48 -52 -1 -3 17 -18 51 -32 75 -55 94 -168 108 -310 39 -92 -46 -124
-87 -124 -160 l0 -49 38 7 c57 9 110 -10 132 -47 19 -30 20 -53 20 -407 0
-370 0 -376 -22 -420 -19 -36 -34 -50 -80 -73 -55 -27 -58 -30 -58 -66 0 -46
21 -67 86 -87 67 -20 289 -29 402 -16 135 16 181 47 168 114 -6 32 -10 36 -64
51 -33 9 -70 27 -85 42 -43 44 -49 100 -45 415 4 269 6 289 28 355 18 53 36
82 72 118 56 56 79 60 96 14 17 -47 59 -84 113 -98 168 -45 279 188 150 311
-59 56 -141 73 -226 46z"/>
<path d="M9530 1389 c-68 -13 -166 -65 -200 -107 -24 -29 -30 -46 -30 -84 l0
-48 50 0 c28 0 64 -7 79 -15 54 -28 58 -51 64 -390 6 -334 15 -404 62 -501 39
-80 97 -139 175 -178 192 -95 414 -59 570 94 36 37 62 55 65 48 2 -7 9 -31 14
-54 23 -89 86 -144 166 -144 166 1 332 95 323 184 -3 27 -7 30 -58 41 -71 14
-96 28 -117 68 -17 29 -18 67 -14 473 4 494 0 528 -59 578 -80 67 -249 55
-370 -26 -63 -42 -84 -73 -84 -128 l-1 -45 63 -6 c75 -7 108 -33 122 -95 13
-53 12 -422 0 -509 -27 -184 -127 -285 -283 -285 -80 0 -120 15 -165 62 -73
77 -92 210 -92 644 0 320 -2 336 -56 385 -52 47 -120 58 -224 38z"/>
</g>
</svg>
