<svg xmlns="http://www.w3.org/2000/svg" width="1200" height="962" viewBox="0 0 1200 962" version="1.1"><path d="M 396.646 28.779 C 391.066 34.157, 359.950 64.223, 327.500 95.593 C 295.050 126.962, 237.900 182.206, 200.500 218.358 C 157.670 259.758, 131.158 286.122, 128.875 289.583 C 123.082 298.363, 121.495 304.614, 121.532 318.500 C 121.584 337.947, 124.366 343.104, 146.683 365.111 C 191.833 409.635, 405.481 615.262, 407.590 616.223 C 409.703 617.186, 410.405 617.040, 412.174 615.271 C 413.616 613.829, 414.077 612.457, 413.664 610.841 C 413.336 609.553, 407.860 601.750, 401.496 593.500 C 356.357 534.984, 327.657 474.903, 314.556 411.499 C 298.787 335.182, 303.393 249.699, 327.099 178.688 C 342.844 131.523, 366.622 87.959, 402.006 41.450 C 408.603 32.780, 414 25.052, 414 24.277 C 414 21.390, 411.899 19, 409.361 19 C 407.469 19, 404.117 21.578, 396.646 28.779" stroke="none" fill="#e40404" fill-rule="evenodd"/><path d="M 584.368 1.947 C 526.836 15.369, 487.921 80.795, 471.623 191.500 C 465.514 232.997, 463.564 263.709, 463.558 318.500 C 463.554 363.468, 464.281 380.646, 467.559 413 C 475.762 493.962, 495.365 556.117, 524.489 593.500 C 547.849 623.485, 577.830 637.662, 613.593 635.637 C 650.609 633.541, 683.687 620.427, 704.725 599.506 C 718.602 585.706, 723.070 574.633, 719.591 562.665 C 718.208 557.907, 716.523 555.505, 708.821 547.309 C 696.199 533.878, 688.762 523.510, 682.457 510.552 C 674.946 495.116, 672.608 485.579, 672.640 470.500 C 672.671 455.968, 674.420 448.054, 680.366 435.546 C 694.595 405.615, 724.789 386.649, 755.500 388.351 C 775.504 389.460, 791.321 395.886, 804.622 408.308 C 817.119 419.978, 824.812 433.265, 829.634 451.509 C 833.188 464.956, 834.066 490.144, 831.553 506.590 C 826.859 537.314, 815.731 565.243, 795.522 597.024 C 790.835 604.395, 787 610.905, 787 611.490 C 787 613.589, 790.151 617, 792.089 617 C 793.323 617, 805.413 606.015, 824.283 587.750 C 840.903 571.663, 900.626 513.985, 957.001 459.578 C 1013.375 405.171, 1062.117 357.929, 1065.316 354.596 C 1069.048 350.709, 1072.613 345.549, 1075.264 340.199 C 1079.273 332.110, 1079.407 331.513, 1079.782 320.181 C 1080.224 306.793, 1078.629 299.945, 1072.837 290.364 C 1070.423 286.372, 1050.987 266.948, 1002.599 220.172 C 965.804 184.603, 903.929 124.790, 865.099 87.255 C 790.688 15.325, 790.927 15.531, 787.980 21.038 C 786.472 23.855, 787.294 25.850, 794.507 36.882 C 813.127 65.361, 825.398 94.441, 830.634 122.500 C 832.071 130.202, 832.499 137.211, 832.494 153 C 832.489 171.323, 832.239 174.448, 830.134 182.433 C 821.026 216.983, 799.683 239.085, 769.186 245.548 C 760.446 247.401, 743.173 247.365, 735.168 245.478 C 709.424 239.409, 685.821 217.580, 676.845 191.539 C 670.746 173.844, 670.848 156.362, 677.161 137.322 C 682.469 121.317, 691.561 107.007, 707.569 89.464 C 719.272 76.639, 720.466 74.413, 720.429 65.500 C 720.389 55.703, 716.144 47.286, 706.020 36.929 C 690.354 20.903, 666.619 8.960, 638.340 2.874 C 623.981 -0.216, 595.721 -0.702, 584.368 1.947 M 741.263 756.445 C 717.304 761.917, 705.144 780.817, 705.035 812.750 L 705 823 700.250 823.006 C 690.261 823.017, 684.432 826.507, 683.380 833.107 C 683.082 834.973, 683.314 837.737, 683.894 839.250 C 684.949 841.997, 684.962 842, 694.975 842 L 705 842 704.978 885.750 C 704.958 926.279, 704.819 929.802, 703.091 933.606 C 701.333 937.477, 697.791 940, 690.892 942.294 C 690.008 942.588, 689.006 944.219, 688.666 945.919 C 687.363 952.435, 691.525 956.054, 702.705 958.125 C 709.964 959.470, 745.071 958.705, 750.219 957.090 C 761.399 953.582, 763.769 943.137, 753.763 941.470 C 747.527 940.432, 742.286 937.429, 740.271 933.740 C 738.667 930.805, 738.472 926.378, 738.201 886.750 L 737.902 843 751.201 842.996 C 762.776 842.993, 764.929 842.731, 767.810 840.974 C 772.249 838.268, 774.470 832.881, 773.345 827.545 L 772.493 823.500 754.635 823.226 L 736.778 822.953 737.161 805.226 C 737.507 789.177, 737.762 787.051, 739.858 782.757 C 742.650 777.033, 746.134 774.379, 752.705 772.970 C 758.151 771.802, 765.746 772.967, 769.760 775.585 C 771.896 776.978, 771.937 777.221, 770.510 779.980 C 769.680 781.586, 769 785.007, 769 787.582 C 769 796.636, 776.073 803.429, 785.500 803.429 C 795.373 803.429, 802 796.260, 802 785.581 C 802 772.557, 791.898 762.281, 774.446 757.554 C 765.946 755.252, 748.970 754.684, 741.263 756.445 M 73.075 764.027 C 39.388 771.093, 12.831 797.673, 3.281 833.881 C -0.086 846.649, -0.991 870.019, 1.359 883.500 C 7.877 920.884, 30.714 948.195, 64.500 959.008 C 69.895 960.735, 74.771 961.364, 85.768 961.751 C 101.915 962.319, 108.403 961.391, 120.309 956.813 C 136.649 950.528, 149.894 939.004, 156.809 925.054 C 159.976 918.665, 160.545 916.466, 160.817 909.554 C 161.100 902.344, 160.838 900.924, 158.317 896.001 C 153.774 887.132, 146.100 883.489, 137.057 885.907 C 127.839 888.373, 122.067 895.734, 122.022 905.081 C 122.002 909.347, 123.960 914.478, 127.973 920.667 C 129.259 922.652, 129.071 923.208, 125.728 927.288 C 117.759 937.012, 106.457 941.477, 91.470 940.822 C 83.265 940.463, 81.390 940.003, 74.733 936.713 C 57.209 928.052, 45.169 907.533, 41.455 880 C 39.672 866.778, 39.668 858.279, 41.440 845 C 46.426 807.630, 66.159 784, 92.379 784 C 104.448 784, 114.816 787.974, 122.318 795.476 C 128.035 801.193, 128.839 803.478, 126.142 806.349 C 121.016 811.806, 119.613 821.349, 122.880 828.541 C 126.405 836.302, 134.221 840.618, 143.191 839.756 C 148.933 839.204, 152.303 837.005, 156.500 831.070 C 159.334 827.063, 159.500 826.292, 159.500 817.164 C 159.500 808.408, 159.208 806.889, 156.388 801 C 148.699 784.942, 133.276 772.639, 112.500 765.991 C 106.949 764.215, 102.602 763.684, 91.500 763.425 C 83.800 763.246, 75.509 763.517, 73.075 764.027 M 227 821.477 C 210.241 825.226, 198.030 833.117, 194.439 842.520 C 186.914 862.225, 210.958 876.467, 223.408 859.679 C 225.051 857.464, 225.539 855.213, 225.681 849.198 L 225.863 841.538 230.681 840.288 C 236.595 838.754, 248.174 838.643, 253.315 840.071 C 258.407 841.484, 264.224 847.465, 265.878 852.987 C 266.610 855.429, 267.456 862.806, 267.759 869.380 C 268.287 880.841, 268.231 881.302, 266.405 880.581 C 258.951 877.639, 248.789 876, 238 876 C 212.580 876, 194.739 884.635, 186.781 900.790 C 183.991 906.454, 183.448 908.749, 183.154 916.138 C 182.724 926.932, 184.496 933.520, 190.079 941.880 C 197.164 952.491, 208.581 958.994, 224.092 961.255 C 237.356 963.188, 253.652 958.564, 266.301 949.279 C 269.319 947.064, 271.511 946.032, 271.740 946.719 C 272.986 950.459, 278.427 956.034, 283.105 958.365 C 291.582 962.589, 303.914 961.888, 311.273 956.763 C 314.469 954.536, 318 948.188, 318 944.668 C 318 942.618, 317.385 942.157, 313.908 941.601 C 308.576 940.749, 302.884 937.764, 301 934.833 C 299.755 932.896, 299.402 925.533, 298.923 891.500 C 298.290 846.512, 298.038 844.494, 292.006 836.167 C 287.685 830.201, 281.848 826.361, 272.590 823.390 C 265.665 821.168, 262.268 820.739, 249 820.408 C 237.850 820.131, 231.676 820.431, 227 821.477 M 397.305 822.386 C 391.031 825.370, 383.693 831.907, 379.838 837.946 C 377.872 841.026, 376.997 841.794, 376.990 840.446 C 376.974 837.301, 372.490 828.717, 369.376 825.871 C 365.415 822.249, 359.865 820.643, 354.234 821.488 C 343.879 823.041, 332.412 829.505, 329.635 835.356 C 327.940 838.928, 327.485 844.757, 328.765 846.500 C 329.169 847.050, 332.352 847.500, 335.837 847.500 C 341.500 847.500, 342.425 847.791, 344.523 850.231 C 345.815 851.733, 347.159 854.883, 347.510 857.231 C 347.861 859.579, 348.002 877.025, 347.824 896 C 347.446 936.270, 347.640 935.416, 337.726 940.382 C 333.633 942.431, 331.790 943.987, 331.342 945.772 C 330.236 950.179, 332.122 953.311, 337.500 956 C 342.389 958.444, 343 958.500, 365 958.500 C 386.058 958.500, 387.805 958.359, 392.254 956.304 C 397.857 953.717, 399.628 950.433, 398.031 945.593 C 397.154 942.937, 396.268 942.299, 392.063 941.300 C 379.630 938.347, 378.669 935.937, 378.190 906.500 C 377.794 882.197, 378.772 868.882, 381.589 860.254 C 383.482 854.453, 388.681 847.733, 393.006 845.497 C 395.797 844.054, 395.821 844.069, 398.155 848.721 C 401.244 854.879, 404.653 857.224, 411.321 857.777 C 422.072 858.668, 429.078 852.143, 429.816 840.551 C 430.316 832.695, 427.771 827.201, 421.803 823.251 C 418.347 820.964, 416.369 820.451, 410.073 820.208 C 403.707 819.962, 401.672 820.310, 397.305 822.386 M 511.500 821.580 C 505.882 823.576, 496.930 830.881, 493.202 836.509 L 490.051 841.265 489.009 838.383 C 485.095 827.561, 481.896 823.874, 474.705 821.896 C 469.531 820.473, 462.645 821.701, 453.974 825.592 C 444.084 830.030, 438.387 838.466, 440.827 845.060 C 441.598 847.146, 442.240 847.370, 446.761 847.130 C 453.170 846.790, 457.416 848.886, 458.892 853.119 C 460.313 857.196, 460.409 925.987, 459.001 931.057 C 457.768 935.494, 453.636 939.538, 448.527 941.307 C 443.866 942.921, 442.142 946.513, 443.942 950.860 C 446.477 956.981, 454.781 959, 477.413 959 C 495.161 959, 503.167 957.966, 506.923 955.190 C 510.791 952.331, 511.498 950.577, 510.445 946.451 C 509.565 942.998, 509.078 942.616, 503.329 940.860 C 495.982 938.617, 492.416 934.960, 491.478 928.705 C 491.125 926.348, 491.014 911.387, 491.231 895.460 C 491.596 868.701, 491.792 866.051, 493.812 860.595 C 496.395 853.620, 500.033 848.560, 504.366 845.919 C 508.398 843.460, 508.656 843.495, 509.437 846.604 C 511.180 853.551, 517.574 858, 525.812 858 C 544.672 858, 549.133 829.871, 531.541 821.880 C 526.680 819.672, 517.265 819.531, 511.500 821.580 M 600.365 821.429 C 580.005 826.069, 563.855 838.525, 555.134 856.315 C 549.631 867.539, 547.955 874.450, 547.300 888.617 C 546.598 903.812, 548.352 912.504, 554.663 925.112 C 567.241 950.237, 593.758 964.098, 623.340 961.010 C 649.226 958.308, 666.898 945.831, 666.978 930.200 C 667 925.865, 664.730 920, 663.030 920 C 662.525 920, 660.426 921.543, 658.367 923.430 C 645.158 935.532, 620.555 938.446, 603.792 929.894 C 597.157 926.509, 589.264 918.349, 586.072 911.574 C 583.230 905.542, 581 897.139, 581 892.461 L 581 890.021 624.219 889.761 L 667.438 889.500 669.273 884.556 C 672.024 877.147, 671.764 863.997, 668.692 855.165 C 663.199 839.369, 652.422 828.596, 636.420 822.903 C 628.718 820.164, 609.387 819.373, 600.365 821.429 M 834 821.551 C 830.425 822.317, 823.225 825.043, 818 827.609 C 810.041 831.518, 807.119 833.672, 799.987 840.887 C 786.245 854.790, 780 870.166, 780 890.095 C 780 912.102, 787.255 929.642, 802.006 943.299 C 809.633 950.361, 817.024 954.670, 827.500 958.165 C 833.618 960.206, 836.390 960.496, 849.500 960.465 C 863.270 960.433, 865.156 960.202, 872.500 957.649 C 896.333 949.364, 913.518 929.657, 917.917 905.566 C 919.488 896.960, 919.245 881.007, 917.416 872.697 C 915.230 862.767, 908.233 848.703, 902.049 841.808 C 896.476 835.595, 886.455 828.569, 878.314 825.167 C 866.297 820.145, 847.665 818.625, 834 821.551 M 1167.500 822.338 C 1160.979 825.497, 1154.718 831.012, 1150.439 837.367 C 1148.042 840.926, 1146.997 841.871, 1146.990 840.487 C 1146.975 837.320, 1142.515 828.742, 1139.376 825.842 C 1135.059 821.853, 1129.272 820.468, 1122.556 821.817 C 1114.639 823.407, 1106.733 827.446, 1102.614 832.005 C 1098.563 836.489, 1097.509 839.570, 1098.400 844.320 L 1099.020 847.626 1104.970 847.196 C 1110.498 846.796, 1111.129 846.975, 1113.874 849.720 C 1115.867 851.713, 1117.042 854.112, 1117.483 857.087 C 1117.843 859.514, 1117.994 877.025, 1117.818 896 C 1117.447 936.271, 1117.641 935.416, 1107.726 940.382 C 1103.633 942.431, 1101.790 943.987, 1101.342 945.772 C 1100.236 950.179, 1102.122 953.311, 1107.500 956 C 1112.389 958.444, 1113 958.500, 1135 958.500 C 1156.058 958.500, 1157.805 958.359, 1162.254 956.304 C 1167.797 953.744, 1169.352 950.857, 1167.940 945.744 C 1167.074 942.610, 1166.523 942.212, 1161.503 941.088 C 1155.357 939.713, 1150.667 935.858, 1149.592 931.299 C 1148.317 925.896, 1147.801 890.371, 1148.817 877.996 C 1150.303 859.907, 1154.739 849.772, 1163.054 845.472 C 1165.784 844.061, 1165.833 844.092, 1168.155 848.721 C 1171.244 854.879, 1174.653 857.224, 1181.321 857.777 C 1192.072 858.668, 1199.078 852.143, 1199.816 840.551 C 1200.316 832.695, 1197.771 827.201, 1191.803 823.251 C 1188.347 820.964, 1186.369 820.451, 1180.073 820.208 C 1173.724 819.963, 1171.692 820.307, 1167.500 822.338 M 948.487 823.799 C 935.887 828.156, 929.639 834.133, 929.551 841.914 L 929.500 846.462 935.248 847.195 C 942.435 848.111, 944.527 849.221, 946.718 853.280 C 948.226 856.074, 948.541 860.861, 949.100 889.500 C 949.661 918.265, 949.998 923.361, 951.727 929.213 C 955.826 943.084, 964.940 953.512, 977 958.130 C 984.019 960.818, 998.654 961.754, 1006.125 959.992 C 1014.421 958.036, 1022.830 953.329, 1029.536 946.890 L 1035.643 941.026 1037.443 946.763 C 1040.849 957.617, 1045.429 961.351, 1055.228 961.262 C 1070.387 961.124, 1086.153 953.301, 1087.011 945.491 C 1087.132 944.396, 1087.178 942.263, 1087.115 940.750 C 1087.006 938.153, 1086.736 938, 1082.250 937.996 C 1079.251 937.994, 1076.279 937.248, 1074.190 935.974 C 1067.894 932.136, 1067.847 931.712, 1068.103 881.441 L 1068.334 836.123 1065.858 831.312 C 1064.238 828.162, 1062.021 825.707, 1059.441 824.205 C 1055.942 822.168, 1054.490 821.954, 1046.500 822.304 C 1035.534 822.783, 1028.079 825.417, 1021.634 831.091 C 1016.884 835.272, 1014.572 840.445, 1015.607 844.572 C 1016.071 846.417, 1017.025 846.837, 1021.620 847.218 C 1027.488 847.705, 1031.622 850.043, 1033.780 854.096 C 1034.754 855.926, 1034.983 863.065, 1034.737 884 C 1034.432 910.098, 1034.296 911.806, 1032.064 917.500 C 1027.215 929.868, 1015.853 937.087, 1003.637 935.560 C 995.235 934.511, 991.003 931.518, 987.290 924 C 982.773 914.851, 982.001 907.005, 981.994 870.178 C 981.991 851.473, 981.566 836.977, 980.956 834.781 C 979.632 830.014, 975.491 825.103, 971.329 823.364 C 966.780 821.463, 954.569 821.696, 948.487 823.799 M 600.748 840.368 C 590.599 844.149, 583.654 854.253, 581.581 868.250 L 580.877 873 606.874 873 C 621.172 873, 633.967 872.583, 635.308 872.073 C 638.505 870.858, 639.367 867.086, 637.979 860.397 C 636.507 853.310, 631.639 846.259, 625.688 842.597 C 621.579 840.068, 619.677 839.586, 612.688 839.302 C 607.362 839.086, 603.188 839.458, 600.748 840.368 M 838.825 840.400 C 824.820 845.402, 817 861.992, 817 886.702 C 817 907.579, 821.330 922.094, 830.476 931.871 C 836.738 938.566, 842.156 941, 850.793 941 C 870.812 941, 883 922.457, 883 892 C 883 860.453, 869.189 838.909, 849.054 839.044 C 845.449 839.068, 840.846 839.678, 838.825 840.400 M 236.326 893.984 C 230.958 895.123, 227.173 897.106, 223.589 900.657 C 214.255 909.905, 216.729 928.228, 228.275 935.367 C 238.441 941.652, 252.716 939.556, 263.054 930.262 L 268.204 925.631 267.847 914.391 C 267.519 904.054, 267.290 902.933, 264.995 900.440 C 263.623 898.948, 260.657 896.899, 258.404 895.885 C 253.569 893.710, 242.223 892.733, 236.326 893.984" stroke="none" fill="#044ca4" fill-rule="evenodd"/></svg>