<svg xmlns="http://www.w3.org/2000/svg" width="500" height="406" viewBox="0 0 500 406" version="1.1"><path d="M 191.346 1.551 C 146.912 11.299, 102.574 58.847, 76.697 124.500 C 63.920 156.917, 58.241 184.150, 57.305 217.500 C 56.241 255.397, 61.871 276.844, 76.830 291.880 C 85.043 300.135, 93.429 304.419, 106.810 307.194 C 122.366 310.420, 152.124 309.355, 194 304.072 C 240.444 298.213, 254.930 297, 286.500 296.327 C 327.667 295.448, 355.990 297.316, 404.500 304.107 C 431.895 307.942, 443.654 307.858, 451.563 303.772 C 468.410 295.067, 472.462 275.601, 464.837 240 C 457.585 206.142, 438.257 169.326, 416.102 147.171 C 389.057 120.126, 358.653 111.506, 325.824 121.576 C 313.131 125.469, 314.279 126.094, 311 113.500 C 297.083 60.031, 270.331 20.109, 239.175 6.310 C 225.344 0.185, 206.239 -1.716, 191.346 1.551 M 196.362 7.938 C 169.596 12.191, 141.395 32.558, 116.848 65.365 C 100.334 87.435, 88.388 110.841, 78.499 140.500 C 69.464 167.599, 65.253 189.861, 64.313 215.500 C 62.748 258.167, 72.706 283.569, 95.247 294.411 C 108.334 300.705, 113.432 301.490, 141 301.452 C 162.171 301.423, 169.164 300.983, 192.466 298.209 C 207.298 296.444, 219.846 295, 220.351 295 C 220.856 295, 220.147 294.117, 218.774 293.037 C 215.216 290.238, 211.791 281.582, 211.240 274 C 210.196 259.624, 215.902 239.373, 227.442 216.500 C 246.240 179.238, 271.211 150.363, 298.833 133.946 L 306.165 129.587 305.484 125.047 C 305.110 122.549, 303.235 115.105, 301.317 108.503 C 285.714 54.779, 256.785 17.974, 223.500 9.503 C 216.031 7.602, 203.149 6.859, 196.362 7.938 M 301.500 139.156 C 274.931 155.721, 248.395 187.347, 231.052 223.116 C 217.849 250.345, 213.919 272.910, 220.138 285.777 C 223.625 292.994, 229.232 294.448, 241.985 291.442 C 268.025 285.305, 291.923 261.083, 303.359 229.234 C 309.637 211.751, 312.675 185.439, 311.046 162.648 C 310.020 148.285, 308.219 135.988, 307.147 136.019 C 306.791 136.029, 304.250 137.441, 301.500 139.156" stroke="none" fill="#acd475" fill-rule="evenodd"/><path d="M 196.362 7.938 C 169.596 12.191, 141.395 32.558, 116.848 65.365 C 100.334 87.435, 88.388 110.841, 78.499 140.500 C 69.464 167.599, 65.253 189.861, 64.313 215.500 C 62.748 258.167, 72.706 283.569, 95.247 294.411 C 108.334 300.705, 113.432 301.490, 141 301.452 C 162.171 301.423, 169.164 300.983, 192.466 298.209 C 207.298 296.444, 219.846 295, 220.351 295 C 220.856 295, 220.147 294.117, 218.774 293.037 C 215.216 290.238, 211.791 281.582, 211.240 274 C 210.196 259.624, 215.902 239.373, 227.442 216.500 C 246.240 179.238, 271.211 150.363, 298.833 133.946 L 306.165 129.587 305.484 125.047 C 305.110 122.549, 303.235 115.105, 301.317 108.503 C 285.714 54.779, 256.785 17.974, 223.500 9.503 C 216.031 7.602, 203.149 6.859, 196.362 7.938 M 301.500 139.156 C 274.931 155.721, 248.395 187.347, 231.052 223.116 C 217.849 250.345, 213.919 272.910, 220.138 285.777 C 223.625 292.994, 229.232 294.448, 241.985 291.442 C 268.025 285.305, 291.923 261.083, 303.359 229.234 C 309.637 211.751, 312.675 185.439, 311.046 162.648 C 310.020 148.285, 308.219 135.988, 307.147 136.019 C 306.791 136.029, 304.250 137.441, 301.500 139.156 M 348.475 336.339 C 341.473 340.694, 340.235 342.306, 341.901 344.897 C 342.646 346.055, 343.966 345.830, 349.650 343.572 C 353.417 342.075, 357.517 340.196, 358.760 339.395 C 360.907 338.014, 360.943 337.791, 359.485 334.970 C 358.640 333.337, 357.386 332, 356.699 332 C 356.012 332, 352.311 333.952, 348.475 336.339 M 66.184 336.616 L 62.568 340.232 64.935 342.148 C 67.277 344.045, 67.326 344.042, 69.591 341.914 L 71.880 339.764 76.345 341.925 C 81.674 344.505, 84.700 344.017, 89.147 339.863 C 92.167 337.042, 92.209 336.888, 90.477 334.975 C 88.348 332.622, 86.431 332.434, 85.638 334.500 C 84.909 336.401, 81.092 336.384, 78.559 334.468 C 75.004 331.780, 70.184 332.616, 66.184 336.616 M 9.995 335.250 C 9.993 335.387, 7.745 348.550, 5 364.500 C 2.255 380.450, 0.007 394.512, 0.005 395.750 C 0 397.783, 0.481 398, 4.981 398 C 9.331 398, 10.026 397.715, 10.464 395.750 C 11.060 393.081, 13.992 375.768, 13.997 374.893 C 13.999 374.559, 17.517 374.045, 21.815 373.750 C 31.452 373.090, 38.761 370.113, 43.425 364.951 C 52.374 355.046, 50.130 342.257, 38.500 336.890 C 35.311 335.418, 32.015 335.039, 22.250 335.022 C 15.512 335.010, 9.998 335.113, 9.995 335.250 M 235.250 364.850 C 226.863 381.264, 220 395.437, 220 396.346 C 220 397.654, 221 398, 224.774 398 L 229.549 398 234.285 388.466 L 239.020 378.933 249.730 379.216 L 260.440 379.500 261.998 388.500 L 263.555 397.500 268.778 397.802 C 272.467 398.016, 274 397.735, 274 396.846 C 274 394.803, 262.957 336.739, 262.395 335.831 C 262.113 335.374, 259.321 335.002, 256.191 335.004 L 250.500 335.008 235.250 364.850 M 19.578 345.134 C 19.331 345.885, 18.617 349.875, 17.990 354 C 17.364 358.125, 16.630 362.288, 16.358 363.250 C 15.151 367.536, 31.250 363.869, 35.425 358.907 C 38.836 354.853, 38.853 350.150, 35.468 346.970 C 33.480 345.102, 31.547 344.502, 26.481 344.180 C 21.632 343.871, 19.914 344.108, 19.578 345.134 M 249.199 358.560 C 246.283 364.429, 244.091 369.425, 244.328 369.662 C 244.565 369.899, 247.853 369.959, 251.635 369.796 L 258.510 369.500 256.505 358.695 L 254.500 347.890 249.199 358.560 M 63.500 350.877 C 55.460 355.888, 50.163 365.799, 49.279 377.491 C 48.348 389.804, 52.597 397.600, 60.841 398.706 C 66.322 399.441, 69.055 398.604, 74.332 394.576 C 76.800 392.693, 79.084 391.418, 79.409 391.743 C 79.734 392.067, 80 393.608, 80 395.167 C 80 397.898, 80.180 398, 84.969 398 L 89.937 398 89.350 390.250 C 88.931 384.731, 89.403 378.253, 90.987 367.746 C 92.210 359.631, 92.953 352.319, 92.637 351.496 C 91.854 349.457, 84.153 349.437, 83.373 351.471 C 82.893 352.722, 82.228 352.647, 78.944 350.971 C 74.058 348.479, 67.414 348.438, 63.500 350.877 M 113.281 351.507 C 103.974 356.217, 97.916 367.134, 98.076 378.909 C 98.252 391.846, 104.953 399, 116.896 399 C 130.768 399, 140.893 387.744, 141.795 371.317 C 142.178 364.340, 141.918 362.463, 140.036 358.574 C 136.871 352.035, 132.992 349.614, 125.022 349.203 C 119.544 348.921, 117.665 349.289, 113.281 351.507 M 294.218 351.579 C 284.947 356.199, 279.857 364.671, 279.209 376.563 C 278.839 383.332, 279.104 385.283, 280.857 388.719 C 282.763 392.455, 286.247 396.038, 289.300 397.403 C 290.122 397.770, 289.921 398.343, 288.663 399.220 C 283.277 402.975, 283.338 402.875, 285.441 404.500 C 288.841 407.127, 293.524 406.386, 297.202 402.640 C 299.312 400.490, 301.924 399.020, 304.453 398.557 C 306.628 398.159, 310.115 396.961, 312.203 395.896 C 315.624 394.151, 316 393.571, 316 390.039 C 316 387.882, 315.567 385.850, 315.037 385.523 C 314.508 385.196, 311.823 386.069, 309.071 387.464 C 306.318 388.859, 302.679 390, 300.984 390 C 288.934 390, 284.998 374.905, 294.289 364.324 C 300.085 357.722, 306.835 356.369, 313.500 360.474 C 315.700 361.829, 317.860 362.952, 318.301 362.969 C 318.742 362.986, 319.777 361.386, 320.601 359.413 C 322.411 355.081, 321.532 353.607, 315.500 350.863 C 309.433 348.104, 300.595 348.401, 294.218 351.579 M 387.218 351.579 C 377.947 356.199, 372.857 364.671, 372.209 376.563 C 371.839 383.332, 372.104 385.283, 373.857 388.719 C 377.749 396.349, 384.343 399.567, 394.424 398.758 C 397.827 398.485, 402.438 397.307, 404.779 396.113 C 408.656 394.135, 409 393.640, 409 390.039 C 409 387.882, 408.567 385.850, 408.037 385.523 C 407.508 385.196, 404.823 386.069, 402.071 387.464 C 399.318 388.859, 395.679 390, 393.984 390 C 381.934 390, 377.998 374.905, 387.289 364.324 C 393.085 357.722, 399.835 356.369, 406.500 360.474 C 408.700 361.829, 410.860 362.952, 411.301 362.969 C 411.742 362.986, 412.777 361.386, 413.601 359.413 C 415.411 355.081, 414.532 353.607, 408.500 350.863 C 402.433 348.104, 393.595 348.401, 387.218 351.579 M 428.787 351.258 C 421.461 355.693, 416.244 365.704, 415.283 377.168 C 414.238 389.626, 418.506 397.588, 426.828 398.704 C 432.325 399.441, 435.052 398.606, 440.342 394.569 C 445.028 390.992, 446 391.262, 446 396.137 C 446 397.866, 446.585 398.072, 450.750 397.805 L 455.500 397.500 455.155 389.398 C 454.940 384.378, 455.638 375.891, 456.987 367.084 C 458.185 359.268, 458.917 352.226, 458.614 351.436 C 457.852 349.452, 450.136 349.481, 449.373 351.471 C 448.893 352.722, 448.228 352.647, 444.944 350.971 C 439.756 348.325, 433.447 348.437, 428.787 351.258 M 490.419 350.897 C 488.175 351.917, 484.729 354.408, 482.763 356.433 L 479.187 360.114 480.134 355.898 C 481.312 350.656, 480.511 349.783, 474.888 350.186 L 470.503 350.500 466.859 373.500 C 464.854 386.150, 463.555 396.866, 463.971 397.314 C 464.388 397.762, 466.669 397.987, 469.042 397.814 L 473.356 397.500 475.100 389.366 C 478.910 371.603, 488.020 358.027, 496.143 358.007 C 499.023 357.999, 500 356.457, 500 351.918 C 500 349.396, 499.627 349.003, 497.250 349.022 C 495.738 349.034, 492.664 349.878, 490.419 350.897 M 178.252 350.706 C 176.012 351.137, 175.776 351.645, 174.177 359.500 C 173.524 362.707, 172.980 363.430, 171.431 363.145 C 162.404 361.484, 160.341 361.762, 156.468 365.163 C 149.998 370.843, 146.626 382.182, 148.897 390.617 C 150.272 395.723, 152.785 398.030, 157.672 398.673 C 160.829 399.087, 162.245 398.633, 165.750 396.082 L 170 392.987 170 395.494 C 170 397.751, 170.397 398, 174 398 L 178 398 178.004 390.250 C 178.007 385.988, 179.132 376.223, 180.504 368.552 C 183.985 349.098, 184.047 349.589, 178.252 350.706 M 332.250 351.119 C 330.462 351.635, 329 352.372, 329 352.756 C 329 353.141, 327.832 360.458, 326.405 369.018 C 323.458 386.688, 323.874 391.028, 329.004 396.158 C 331.331 398.485, 332.709 399, 336.607 399 C 342.125 399, 349.079 395.987, 351.933 392.359 L 353.873 389.892 354.186 393.696 C 354.495 397.441, 354.570 397.505, 359.003 397.795 L 363.505 398.089 363.678 386.295 C 363.776 379.628, 364.737 369.541, 365.888 363.094 C 367.009 356.821, 367.682 351.294, 367.385 350.813 C 366.693 349.694, 359.853 350.874, 358.386 352.366 C 357.773 352.990, 356.348 357.550, 355.220 362.500 C 351.125 380.468, 345.724 390, 339.635 390 C 334.304 390, 333.907 385.514, 337.472 365.557 C 338.831 357.946, 339.705 351.331, 339.413 350.859 C 338.761 349.805, 336.520 349.886, 332.250 351.119 M 117.922 359.274 C 108.221 365.811, 105.228 382.474, 112.611 388.842 C 116.497 392.195, 120.432 391.186, 125.683 385.491 C 132.875 377.691, 133.951 365.797, 128.003 359.850 C 124.559 356.406, 122.364 356.280, 117.922 359.274 M 67.510 360.171 C 59.195 366.712, 57.101 387.732, 64.577 389.609 C 69.511 390.847, 75.475 383.573, 79.116 371.875 C 81.556 364.034, 81.542 360.360, 79.066 359.035 C 75.840 357.309, 70.479 357.836, 67.510 360.171 M 432.058 361.819 C 427.876 366.215, 425.738 372.293, 425.794 379.630 C 425.939 398.505, 442.304 388.495, 446.227 367.132 C 447.303 361.275, 447.245 360.652, 445.507 359.382 C 444.468 358.622, 441.834 358, 439.654 358 C 436.362 358, 435.075 358.647, 432.058 361.819 M 194.422 363.418 C 184.969 367.535, 180.006 382.900, 185.164 392.078 C 189.043 398.980, 196.953 400.796, 206.065 396.877 C 210.242 395.080, 211 394.338, 211 392.044 C 211 388.174, 210.245 387.865, 206.155 390.057 C 200.839 392.906, 195.642 392.631, 193.073 389.365 C 190.176 385.683, 190.450 385, 194.818 385 C 201.171 385, 208.588 382.278, 211.425 378.907 C 215.273 374.333, 215.054 368.065, 210.923 364.589 C 208.460 362.516, 206.815 362.008, 202.673 362.039 C 199.828 362.061, 196.115 362.681, 194.422 363.418 M 164.500 368.945 C 157.753 371.707, 153.595 384.808, 157.812 390.016 C 160.247 393.024, 163.325 391.977, 166.601 387.027 C 168.806 383.695, 171.954 374.570, 171.988 371.411 C 171.997 370.557, 167.612 367.779, 166.703 368.063 C 166.591 368.098, 165.600 368.495, 164.500 368.945 M 196.171 370.509 C 194.531 371.889, 192.720 374.364, 192.147 376.009 C 191.195 378.740, 191.295 379, 193.302 378.994 C 196.817 378.986, 203.348 376.936, 205.250 375.246 C 207.417 373.320, 207.470 371.613, 205.429 369.571 C 203.140 367.283, 199.576 367.644, 196.171 370.509" stroke="none" fill="#0c6b2e" fill-rule="evenodd"/></svg>