<?xml version="1.0" standalone="no"?>
<!DOCTYPE svg PUBLIC "-//W3C//DTD SVG 20010904//EN"
 "http://www.w3.org/TR/2001/REC-SVG-20010904/DTD/svg10.dtd">
<svg version="1.0" xmlns="http://www.w3.org/2000/svg"
 width="500.000000pt" height="406.000000pt" viewBox="0 0 500.000000 406.000000"
 preserveAspectRatio="xMidYMid meet">

<g transform="translate(0.000000,406.000000) scale(0.100000,-0.100000)"
fill="#000000" stroke="none">
<path d="M0 2030 l0 -2030 2500 0 2500 0 0 2030 0 2030 -1417 -1 c-1191 -1
-1408 -3 -1353 -14 249 -49 480 -245 654 -553 94 -165 196 -435 237 -627 7
-33 13 -61 14 -62 0 -1 34 9 74 23 440 153 835 -17 1152 -495 179 -270 304
-631 316 -916 7 -143 -5 -212 -50 -286 -39 -65 -94 -103 -178 -125 -80 -21
-165 -16 -454 26 -411 58 -502 64 -985 65 -482 0 -500 -1 -1020 -65 -541 -67
-762 -75 -940 -35 -313 71 -461 306 -477 760 -21 591 222 1300 611 1781 89
111 247 259 353 331 142 98 245 144 383 173 84 18 77 19 -917 19 l-1003 1 0
-2030z"/>
<path d="M1965 3979 c-230 -34 -473 -190 -692 -444 -370 -429 -607 -1042 -630
-1630 -19 -507 121 -763 462 -842 66 -15 120 -18 315 -17 198 0 276 5 500 32
146 18 269 32 273 32 5 0 -3 14 -17 31 -83 99 -86 275 -10 506 60 179 199 436
338 623 131 177 357 385 506 466 28 15 50 34 50 43 0 33 -71 284 -109 383
-144 384 -372 665 -625 771 -117 49 -235 64 -361 46z"/>
</g>
</svg>
