<?xml version="1.0" standalone="no"?>
<!DOCTYPE svg PUBLIC "-//W3C//DTD SVG 20010904//EN"
 "http://www.w3.org/TR/2001/REC-SVG-20010904/DTD/svg10.dtd">
<svg version="1.0" xmlns="http://www.w3.org/2000/svg"
 width="640.000000pt" height="480.000000pt" viewBox="0 0 640.000000 480.000000"
 preserveAspectRatio="xMidYMid meet">

<g transform="translate(0.000000,480.000000) scale(0.100000,-0.100000)"
fill="#000000" stroke="none">
<path d="M699 3206 c-305 -64 -548 -295 -630 -601 -30 -112 -30 -297 0 -410
37 -138 104 -260 195 -357 55 -58 74 -68 128 -68 94 0 186 81 225 199 14 42
18 86 18 181 0 112 -4 136 -32 230 -45 147 -56 227 -44 314 18 128 57 213 140
299 96 101 219 159 367 174 l79 9 -70 18 c-91 25 -286 30 -376 12z"/>
<path d="M1057 3129 c-119 -28 -239 -134 -308 -273 -39 -79 -42 -93 -47 -183
-4 -88 -1 -113 31 -243 45 -180 52 -244 38 -345 -28 -199 -149 -327 -326 -344
-67 -7 -68 -8 -32 -15 60 -13 148 -1 203 27 52 26 122 94 147 143 70 135 79
322 27 519 -43 164 -49 262 -22 352 57 188 203 315 397 345 60 9 73 14 55 19
-35 10 -118 9 -163 -2z"/>
<path d="M2109 3120 c-162 -28 -251 -171 -190 -306 23 -51 82 -99 190 -154 45
-24 99 -58 118 -77 31 -28 35 -37 29 -65 -20 -105 -176 -126 -252 -35 l-27 32
-43 -50 c-24 -27 -44 -52 -44 -56 0 -19 48 -61 98 -86 51 -25 67 -28 152 -27
67 0 106 6 133 17 128 58 181 195 122 314 -32 63 -70 93 -200 158 -83 42 -103
56 -120 87 -18 35 -19 40 -5 65 8 16 32 36 53 47 48 23 96 15 140 -23 l32 -29
48 43 c30 28 45 49 41 58 -6 18 -68 62 -104 75 -40 15 -121 21 -171 12z"/>
<path d="M2535 3097 c-3 -6 -4 -185 -3 -397 l3 -385 83 -3 82 -3 0 166 0 165
175 0 175 0 0 -165 0 -165 85 0 85 0 0 400 0 400 -85 0 -85 0 0 -160 0 -160
-175 0 -175 0 0 160 0 160 -80 0 c-55 0 -82 -4 -85 -13z"/>
<path d="M3372 2713 l3 -398 83 -3 82 -3 0 401 0 400 -85 0 -85 0 2 -397z"/>
<path d="M3700 2710 l0 -403 163 6 c175 7 236 20 293 63 67 50 95 172 57 251
-18 39 -73 79 -121 89 -40 8 -41 20 -3 27 36 7 90 52 102 85 15 39 13 126 -4
158 -8 16 -28 41 -44 56 -49 47 -103 59 -280 65 l-163 6 0 -403z m282 260 c68
-19 90 -93 44 -146 -20 -24 -32 -28 -90 -32 l-66 -4 0 96 0 96 38 0 c20 0 54
-5 74 -10z m45 -336 c36 -27 48 -67 34 -114 -15 -50 -50 -71 -128 -78 l-63 -5
0 113 0 112 65 -4 c44 -3 73 -10 92 -24z"/>
<path d="M4546 3102 c-6 -10 -287 -751 -293 -774 -5 -16 4 -18 84 -18 l89 0
28 85 27 86 156 -3 155 -3 31 -82 31 -83 93 0 c51 0 93 4 93 9 0 7 -80 216
-270 709 l-31 82 -94 0 c-52 0 -96 -4 -99 -8z m104 -175 c0 -12 23 -87 50
-167 28 -80 50 -146 50 -147 0 -2 -50 -3 -111 -3 -85 0 -110 3 -106 13 26 69
97 301 97 317 0 12 5 18 10 15 6 -3 10 -16 10 -28z"/>
<path d="M4980 3035 l0 -75 95 0 95 0 0 -325 0 -325 85 0 85 0 0 325 0 325 95
0 95 0 0 75 0 75 -275 0 -275 0 0 -75z"/>
<path d="M5765 3098 c-3 -7 -70 -185 -150 -396 -80 -211 -145 -385 -145 -388
0 -2 40 -4 90 -4 l89 0 27 85 27 85 155 -2 156 -3 31 -80 31 -80 92 -3 c70 -2
92 0 92 10 0 7 -67 186 -149 398 l-148 385 -97 3 c-71 2 -98 -1 -101 -10z
m169 -373 c20 -55 36 -103 36 -107 0 -5 -50 -8 -111 -8 -102 0 -111 1 -104 18
26 65 95 281 95 298 0 46 14 30 31 -33 9 -38 33 -113 53 -168z"/>
<path d="M1160 3071 c-229 -70 -316 -355 -220 -720 28 -107 32 -135 28 -216
-4 -86 -7 -100 -46 -177 -84 -167 -204 -252 -387 -274 -60 -7 -60 -7 -25 -17
108 -29 267 29 364 133 152 165 181 316 111 586 -42 160 -48 292 -20 399 42
157 160 262 307 273 44 3 65 8 56 13 -16 11 -134 10 -168 0z"/>
<path d="M1255 3011 c-71 -32 -132 -118 -153 -216 -30 -135 -24 -222 29 -397
75 -253 39 -449 -110 -599 -104 -104 -250 -167 -391 -169 -47 -1 -51 -3 -30
-11 60 -24 172 -41 270 -41 365 2 689 253 787 612 25 91 25 328 0 420 -39 143
-161 340 -246 397 -42 28 -100 30 -156 4z"/>
<path d="M5532 2085 c2 -58 1 -105 -1 -105 -3 0 -14 9 -26 20 -32 30 -85 36
-130 14 -87 -41 -101 -196 -24 -270 41 -39 114 -42 153 -5 21 20 26 21 26 8 0
-13 9 -17 40 -17 l40 0 0 230 0 230 -41 0 -40 0 3 -105z m-26 -148 c21 -18 27
-32 27 -65 0 -56 -24 -82 -74 -82 -47 0 -69 27 -69 86 0 34 5 47 26 63 34 27
57 26 90 -2z"/>
<path d="M1983 2015 c-36 -15 -53 -42 -53 -83 0 -36 29 -63 98 -92 35 -15 52
-28 52 -40 0 -34 -57 -41 -85 -10 -17 19 -27 17 -74 -17 -2 -2 4 -12 14 -23
43 -47 150 -50 199 -5 56 51 24 127 -63 154 -52 15 -76 38 -60 57 15 19 54 18
73 -1 14 -14 18 -14 46 0 27 14 30 18 18 32 -33 40 -109 53 -165 28z"/>
<path d="M2730 2019 c-13 -5 -33 -17 -42 -26 -17 -15 -18 -15 -18 5 0 19 -6
22 -40 22 l-40 0 0 -215 0 -215 43 0 42 0 -3 81 c-2 45 0 79 5 77 4 -2 24 -12
44 -22 48 -24 98 -15 137 24 61 61 54 212 -12 255 -30 19 -87 26 -116 14z m44
-70 c29 -14 51 -68 41 -101 -13 -40 -36 -58 -76 -58 -47 0 -69 27 -69 86 0 34
5 47 26 63 31 24 43 26 78 10z"/>
<path d="M3044 2019 c-80 -23 -123 -127 -89 -215 36 -95 161 -122 249 -53 34
26 33 35 -5 54 -28 15 -32 15 -48 1 -36 -33 -121 -12 -121 29 0 11 24 15 108
17 l107 3 -3 39 c-5 59 -28 95 -75 117 -46 20 -75 22 -123 8z m96 -79 c33 -33
24 -40 -45 -40 -37 0 -65 4 -65 10 0 19 40 50 65 50 14 0 34 -9 45 -20z"/>
<path d="M3433 2010 c-18 -11 -33 -27 -33 -37 0 -9 -3 -13 -7 -9 -4 4 -8 17
-8 29 0 19 -6 22 -40 22 l-40 0 -3 -142 -3 -143 46 0 45 0 0 85 c0 73 3 88 21
106 15 15 30 20 54 17 32 -4 34 -2 40 34 11 62 -13 74 -72 38z"/>
<path d="M3666 2005 c-35 -24 -36 -24 -36 -4 0 18 -5 20 -42 17 l-43 -3 -3
-142 -3 -143 46 0 45 0 0 85 c0 96 13 133 48 142 19 4 30 0 44 -17 15 -18 18
-40 18 -116 l0 -94 39 0 39 0 4 94 c3 102 19 136 63 136 40 0 50 -25 50 -131
l0 -99 43 0 42 0 0 109 c0 128 -8 154 -51 176 -40 21 -87 13 -123 -20 -25 -23
-26 -23 -39 -5 -14 20 -57 40 -86 40 -10 0 -35 -11 -55 -25z"/>
<path d="M4163 2011 c-56 -26 -83 -71 -83 -139 0 -59 17 -101 55 -130 56 -44
158 -36 208 16 l27 28 -36 17 c-31 15 -37 16 -50 2 -24 -24 -90 -19 -108 7 -9
12 -16 26 -16 30 0 5 50 8 110 8 l110 0 0 33 c0 41 -28 95 -60 119 -39 28
-107 32 -157 9z m115 -78 l27 -28 -69 -3 c-37 -2 -71 0 -75 3 -9 10 48 55 70
55 11 0 32 -12 47 -27z"/>
<path d="M4555 1997 l-35 -35 0 29 c0 27 -3 29 -40 29 l-40 0 0 -145 0 -145
40 0 40 0 0 76 c0 107 16 134 83 134 36 0 37 1 37 35 0 19 0 38 0 43 0 4 -11
8 -25 10 -18 2 -35 -6 -60 -31z"/>
<path d="M4764 2019 c-41 -12 -91 -69 -100 -114 -20 -109 69 -208 173 -192 49
8 60 21 55 61 -4 31 -7 34 -22 26 -30 -16 -65 -12 -94 11 -33 26 -37 88 -6
119 22 22 70 26 101 10 17 -10 19 -7 19 30 0 34 -4 42 -26 50 -30 12 -58 11
-100 -1z"/>
<path d="M5015 2016 c-43 -19 -62 -45 -74 -99 -20 -85 12 -167 74 -193 46 -19
63 -18 110 6 45 23 49 24 40 10 -4 -6 11 -10 37 -10 l43 0 -3 146 -3 145 -37
-3 c-29 -2 -36 -7 -34 -20 2 -10 -2 -18 -8 -18 -5 0 -10 4 -10 9 0 12 -63 41
-87 41 -10 -1 -31 -7 -48 -14z m133 -84 c46 -61 15 -142 -54 -142 -47 0 -74
29 -74 80 0 56 38 95 83 86 18 -3 38 -14 45 -24z"/>
<path d="M5764 2012 c-159 -75 -101 -303 77 -302 42 1 108 37 129 72 27 44 27
131 0 175 -38 63 -134 88 -206 55z m121 -87 c65 -64 -14 -168 -95 -125 -26 14
-41 65 -29 98 21 57 82 70 124 27z"/>
<path d="M6090 2013 c-43 -22 -65 -63 -53 -101 6 -20 25 -35 71 -58 79 -39 89
-48 72 -69 -17 -21 -57 -19 -76 4 -15 18 -18 18 -45 2 -16 -9 -29 -19 -29 -23
0 -15 33 -38 69 -49 53 -16 108 -4 143 31 54 54 30 106 -68 151 -66 29 -73 36
-52 57 17 17 48 15 68 -3 14 -13 22 -14 44 -4 33 15 33 34 1 55 -38 25 -104
28 -145 7z"/>
<path d="M2220 1913 c0 -117 8 -144 53 -177 33 -24 124 -29 173 -8 52 22 64
56 64 181 l0 111 -40 0 -40 0 0 -98 c0 -111 -11 -132 -68 -132 -49 0 -62 28
-62 137 l0 93 -40 0 -40 0 0 -107z"/>
</g>
</svg>
