<svg width="360" height="94" viewBox="0 0 360 94" fill="none" xmlns="http://www.w3.org/2000/svg">
<g clip-path="url(#clip0_11:99)">
<path d="M313.592 52.0315L331.083 6.6307H342.272L360 52.0315H348.811L345.108 42.3585H327.301L324.071 52.0315H313.592ZM342.823 34.7137L337.702 20.0481C337.544 19.5801 337.387 18.878 337.15 17.7859C336.914 16.7718 336.678 15.4456 336.441 13.8855C336.126 15.3676 335.89 16.6938 335.653 17.8639C335.417 19.034 335.18 19.8141 335.102 20.2041L330.138 34.7137H342.823ZM306.343 14.8216V52.0315H296.494V14.8216H285.226V6.55269H317.531V14.8216H306.343ZM242.915 52.0315L260.407 6.6307H271.595L289.324 52.0315H278.135L274.432 42.3585H256.625L253.395 52.0315H242.915ZM272.147 34.7137L267.026 20.0481C266.868 19.5801 266.71 18.878 266.474 17.7859C266.238 16.7718 266.001 15.4456 265.765 13.8855C265.45 15.3676 265.213 16.6938 264.977 17.8639C264.741 19.034 264.504 19.8141 264.425 20.2041L259.461 34.7137H272.147ZM211.477 52.0315V6.55269H220.066C224.478 6.55269 227.787 6.70871 229.836 7.09875C231.884 7.41078 233.697 8.03485 235.194 8.81493C237.006 9.82904 238.345 11.1552 239.291 12.7934C240.236 14.4315 240.709 16.3037 240.709 18.41C240.709 21.0622 239.921 23.2465 238.266 24.8846C236.691 26.5228 234.248 27.6149 231.018 28.161C234.721 28.7071 237.479 29.8772 239.37 31.7494C241.261 33.6216 242.206 36.0398 242.206 39.0822C242.206 41.3444 241.655 43.3726 240.551 45.2448C239.448 47.117 237.951 48.5212 236.06 49.5353C234.327 50.4714 232.357 51.0954 230.072 51.4855C227.787 51.8755 224.005 52.1095 218.726 52.1095H217.702H211.477V52.0315ZM221.247 24.7286H223.454C226.448 24.7286 228.496 24.3386 229.757 23.4805C231.018 22.6224 231.569 21.2963 231.569 19.3461C231.569 17.4739 231.018 16.0697 229.757 15.2896C228.575 14.5095 226.526 14.1195 223.611 14.1195H221.247V24.7286ZM221.247 44.3867H225.108C227.551 44.3867 229.442 43.8407 230.702 42.7485C231.963 41.6564 232.593 40.0963 232.593 38.068C232.593 36.1178 231.963 34.7137 230.702 33.6996C229.442 32.6855 227.63 32.1394 225.187 32.1394H221.169V44.3867H221.247ZM192.646 52.0315V6.55269H202.416V51.9535H192.646V52.0315ZM144.11 52.0315V6.55269H153.88V24.8066H173.815V6.55269H183.585V51.9535H173.815V32.9975H153.88V51.9535H144.11V52.0315ZM106.684 46.1809L112.121 40.0963C112.83 41.7344 113.933 43.0606 115.43 44.0747C116.927 45.0108 118.66 45.4788 120.551 45.4788C122.836 45.4788 124.649 44.9328 125.988 43.8407C127.328 42.7485 127.958 41.3444 127.958 39.4722C127.958 37.288 125.752 35.1817 121.261 33.0755C119.842 32.3734 118.66 31.8274 117.873 31.3593C113.854 29.3311 111.096 27.3029 109.521 25.2747C107.945 23.3245 107.236 20.9062 107.236 18.1759C107.236 14.4315 108.733 11.3892 111.727 8.97095C114.721 6.55269 118.582 5.38257 123.388 5.38257C126.146 5.38257 128.588 5.85062 130.558 6.78672C132.607 7.72282 134.34 9.28298 135.916 11.3112L130.085 16.7718C129.376 15.4456 128.509 14.4315 127.328 13.8075C126.224 13.1834 124.806 12.8714 123.23 12.8714C121.261 12.8714 119.685 13.3394 118.503 14.2755C117.321 15.2116 116.691 16.4597 116.691 18.0199C116.691 20.4382 119.054 22.6224 123.782 24.5726C124.727 24.9627 125.437 25.2747 125.909 25.5087C129.77 27.3029 132.685 29.2531 134.576 31.4373C136.467 33.6216 137.413 36.1958 137.413 39.0041C137.413 43.2946 135.916 46.649 133.001 49.2232C130.085 51.7195 126.146 53.0456 121.182 53.0456C117.636 53.0456 114.642 52.4216 112.121 51.2514C109.757 50.2373 107.866 48.4432 106.684 46.1809Z" fill="#034EA1"/>
<path d="M345.817 82.5328L349.599 80.5826C349.757 81.2066 350.072 81.7527 350.624 82.1427C351.175 82.5328 351.884 82.6888 352.672 82.6888C353.46 82.6888 354.09 82.5328 354.563 82.2207C355.036 81.9087 355.272 81.5187 355.272 81.0506C355.272 80.2705 354.484 79.5685 352.83 79.0224C352.357 78.8664 351.884 78.7104 351.648 78.6324C349.678 77.8523 348.26 77.1502 347.551 76.3701C346.763 75.59 346.369 74.6539 346.369 73.5618C346.369 71.9237 346.999 70.5975 348.339 69.5834C349.678 68.5693 351.333 68.0232 353.46 68.0232C354.957 68.0232 356.297 68.3353 357.4 68.9593C358.503 69.5834 359.291 70.4415 359.842 71.5336L356.218 73.3278C356.06 72.7037 355.666 72.2357 355.194 71.9237C354.721 71.6116 354.09 71.4556 353.381 71.4556C352.672 71.4556 352.042 71.6116 351.648 71.9237C351.175 72.2357 350.939 72.6257 350.939 73.0938C350.939 73.9519 352.042 74.7319 354.327 75.434C354.563 75.512 354.8 75.59 354.957 75.59C356.848 76.2141 358.109 76.9162 358.897 77.6963C359.685 78.4763 360.079 79.4905 360.079 80.7386C360.079 82.3768 359.448 83.7029 358.109 84.717C356.769 85.7311 355.036 86.1992 352.83 86.1992C351.096 86.1992 349.599 85.8871 348.339 85.2631C347.078 84.561 346.211 83.7029 345.817 82.5328ZM344.241 77.1502C344.241 79.7245 343.375 81.9087 341.563 83.6249C339.75 85.3411 337.544 86.1992 334.786 86.1992C332.029 86.1992 329.744 85.3411 328.01 83.6249C326.198 81.9087 325.331 79.8025 325.331 77.1502C325.331 74.5759 326.198 72.4697 328.01 70.6755C329.823 68.9593 332.108 68.1012 334.786 68.1012C337.544 68.1012 339.829 68.9593 341.563 70.6755C343.296 72.3917 344.241 74.5759 344.241 77.1502ZM339.199 77.1502C339.199 75.7461 338.805 74.6539 338.017 73.8739C337.229 73.0938 336.126 72.6257 334.786 72.6257C333.447 72.6257 332.344 73.0158 331.556 73.8739C330.768 74.6539 330.374 75.7461 330.374 77.1502C330.374 78.5544 330.768 79.6465 331.556 80.4266C332.344 81.2846 333.447 81.6747 334.786 81.6747C336.126 81.6747 337.229 81.2846 338.017 80.4266C338.805 79.5685 339.199 78.4764 339.199 77.1502ZM322.022 85.4971H317.216L317.295 83.0788C316.664 84.171 315.798 84.951 314.852 85.4191C313.907 85.8871 312.804 86.1992 311.385 86.1992C309.1 86.1992 307.288 85.3411 305.949 83.7029C304.609 82.0647 303.9 79.8805 303.9 77.1502C303.9 74.3419 304.609 72.0797 305.949 70.5195C307.288 68.9593 309.179 68.1793 311.622 68.1793C312.882 68.1793 313.907 68.4913 314.852 69.0373C315.798 69.5834 316.664 70.4415 317.452 71.6896C317.373 71.2996 317.373 70.8315 317.295 70.3635C317.295 69.8954 317.216 69.2714 317.216 68.6473V58.9743H321.865V85.4971H322.022ZM317.531 77.0722C317.531 75.59 317.137 74.3419 316.349 73.4838C315.561 72.6257 314.537 72.1577 313.276 72.1577C311.937 72.1577 310.913 72.6257 310.125 73.4838C309.337 74.3419 308.943 75.512 308.943 77.0722C308.943 78.5544 309.337 79.8025 310.046 80.6606C310.834 81.5187 311.858 81.9087 313.198 81.9087C314.537 81.9087 315.64 81.5187 316.349 80.6606C317.137 79.8025 317.531 78.6324 317.531 77.0722ZM300.827 85.4971H296.021L296.1 83.0788C295.469 84.171 294.603 84.951 293.657 85.4191C292.712 85.8871 291.609 86.1992 290.19 86.1992C287.905 86.1992 286.093 85.3411 284.754 83.7029C283.414 82.0647 282.705 79.8805 282.705 77.1502C282.705 74.3419 283.414 72.0797 284.754 70.5195C286.093 68.9593 287.984 68.1793 290.427 68.1793C291.687 68.1793 292.79 68.4913 293.736 69.0373C294.681 69.5834 295.469 70.4415 296.1 71.5336V68.8033H300.748V85.4971H300.827ZM296.336 77.0722C296.336 75.59 295.942 74.3419 295.154 73.4838C294.366 72.6257 293.342 72.1577 292.081 72.1577C290.742 72.1577 289.718 72.6257 288.93 73.4838C288.142 74.3419 287.748 75.59 287.748 77.0722C287.748 78.5544 288.142 79.8025 288.851 80.5826C289.639 81.4407 290.663 81.8307 292.003 81.8307C293.342 81.8307 294.445 81.4407 295.154 80.5826C295.942 79.8025 296.336 78.6324 296.336 77.0722ZM280.578 85.029C279.947 85.4191 279.238 85.7311 278.45 85.8871C277.741 86.0432 276.874 86.1992 276.008 86.1992C273.329 86.1992 271.123 85.3411 269.468 83.7029C267.813 81.9867 266.947 79.8025 266.947 77.1502C266.947 74.4979 267.813 72.3917 269.468 70.6755C271.123 69.0373 273.329 68.1793 276.087 68.1793C276.953 68.1793 277.82 68.2573 278.529 68.4133C279.238 68.5693 279.947 68.8813 280.578 69.1934V74.1079C280.026 73.5618 279.475 73.1718 278.765 72.8598C278.056 72.5477 277.347 72.4697 276.638 72.4697C275.22 72.4697 274.117 72.8598 273.329 73.7178C272.462 74.5759 272.068 75.6681 272.068 77.0722C272.068 78.4764 272.462 79.6465 273.329 80.4266C274.196 81.2846 275.299 81.6747 276.796 81.6747C277.584 81.6747 278.293 81.5187 278.923 81.2846C279.553 80.9726 280.105 80.5826 280.656 79.9585L280.578 85.029ZM258.831 73.0158C259.304 71.3776 260.013 70.1295 260.959 69.3494C261.904 68.5693 263.007 68.1012 264.425 68.1012C264.741 68.1012 265.213 68.1793 265.922 68.2573C266.08 68.2573 266.159 68.3353 266.238 68.3353L265.528 73.5618C265.134 73.4058 264.819 73.3278 264.425 73.2498C264.031 73.1718 263.637 73.1718 263.243 73.1718C261.746 73.1718 260.643 73.5618 260.013 74.3419C259.383 75.122 258.989 76.3701 258.989 78.1643V85.5751H254.025V68.7253H258.91L258.831 73.0158ZM250.794 78.3203H238.03C238.188 79.5685 238.66 80.4266 239.37 81.0506C240.079 81.6747 241.024 81.9867 242.206 81.9867C243.073 81.9867 243.861 81.8307 244.57 81.4407C245.2 81.1286 245.752 80.5826 246.224 79.8805L250.164 81.8307C249.219 83.3129 248.115 84.405 246.776 85.1071C245.437 85.8091 243.861 86.1992 242.127 86.1992C239.37 86.1992 237.242 85.4191 235.588 83.7809C234.012 82.1427 233.224 79.9585 233.224 77.2282C233.224 74.5759 234.09 72.3917 235.745 70.7535C237.4 69.0373 239.606 68.1793 242.206 68.1793C244.885 68.1793 247.012 68.9593 248.588 70.5975C250.164 72.1577 250.952 74.3419 250.952 77.0722C250.952 77.2282 250.952 77.3842 250.952 77.5403C250.873 77.6963 250.794 78.0083 250.794 78.3203ZM245.909 75.356C245.752 74.2639 245.358 73.4838 244.727 72.9378C244.097 72.3917 243.23 72.1577 242.127 72.1577C241.024 72.1577 240.157 72.3917 239.448 72.9378C238.818 73.4838 238.345 74.2639 238.188 75.356H245.909ZM207.301 85.4971H202.337V68.7253H207.301V71.3776C208.089 70.2855 208.956 69.4274 209.901 68.9593C210.847 68.4133 211.871 68.1793 213.053 68.1793C214.471 68.1793 215.574 68.4913 216.52 69.0373C217.387 69.5834 218.017 70.4415 218.411 71.6116C219.199 70.4415 220.066 69.5834 221.09 69.0373C222.114 68.4913 223.217 68.1793 224.399 68.1793C225.581 68.1793 226.605 68.4133 227.472 68.8033C228.339 69.2714 228.969 69.8954 229.442 70.7535C229.678 71.2216 229.836 71.7676 229.993 72.3917C230.072 73.0158 230.151 73.8739 230.151 75.122V75.6681V85.4971H225.187V77.2282C225.187 75.2 224.951 73.7959 224.557 73.1718C224.163 72.4697 223.375 72.1577 222.351 72.1577C221.09 72.1577 220.144 72.6257 219.593 73.5618C219.041 74.4979 218.726 76.0581 218.726 78.1643V85.5751H213.762V77.2282C213.762 75.278 213.605 73.9519 213.211 73.2498C212.817 72.5477 212.186 72.2357 211.162 72.2357C209.823 72.2357 208.877 72.7037 208.326 73.6398C207.774 74.5759 207.459 76.0581 207.459 78.1643V85.4971H207.301ZM193.276 73.0158C193.749 71.3776 194.458 70.1295 195.404 69.3494C196.349 68.5693 197.452 68.1012 198.871 68.1012C199.186 68.1012 199.658 68.1793 200.368 68.2573C200.525 68.2573 200.604 68.3353 200.683 68.3353L199.974 73.5618C199.58 73.4058 199.264 73.3278 198.871 73.2498C198.477 73.1718 198.083 73.1718 197.689 73.1718C196.192 73.1718 195.089 73.5618 194.458 74.3419C193.828 75.122 193.434 76.3701 193.434 78.1643V85.5751H188.47V68.7253H193.355L193.276 73.0158ZM185.24 78.3203H172.475C172.633 79.5685 173.106 80.4266 173.815 81.0506C174.524 81.6747 175.469 81.9867 176.651 81.9867C177.518 81.9867 178.306 81.8307 179.015 81.4407C179.645 81.1286 180.197 80.5826 180.67 79.8805L184.609 81.8307C183.664 83.3129 182.561 84.405 181.221 85.1071C179.882 85.8091 178.306 86.1992 176.572 86.1992C173.815 86.1992 171.687 85.4191 170.033 83.7809C168.457 82.1427 167.669 79.9585 167.669 77.2282C167.669 74.5759 168.536 72.3917 170.19 70.7535C171.845 69.0373 174.051 68.1793 176.651 68.1793C179.33 68.1793 181.458 68.9593 183.033 70.5975C184.609 72.1577 185.397 74.3419 185.397 77.0722C185.397 77.2282 185.397 77.3842 185.397 77.5403C185.24 77.6963 185.24 78.0083 185.24 78.3203ZM180.354 75.356C180.197 74.2639 179.803 73.4838 179.173 72.9378C178.542 72.3917 177.676 72.1577 176.572 72.1577C175.469 72.1577 174.603 72.3917 173.894 72.9378C173.263 73.4838 172.79 74.2639 172.633 75.356H180.354ZM147.262 93.1419V68.7253H151.989V71.4556C152.62 70.3635 153.408 69.5054 154.353 68.9593C155.299 68.4133 156.402 68.1012 157.662 68.1012C160.105 68.1012 161.996 68.8813 163.335 70.4415C164.675 72.0017 165.384 74.2639 165.384 77.0722C165.384 79.8025 164.675 81.9867 163.335 83.6249C161.996 85.2631 160.184 86.1212 157.899 86.1212C156.559 86.1212 155.377 85.8871 154.432 85.3411C153.486 84.873 152.698 84.0929 151.989 83.0008C152.068 83.3909 152.068 83.8589 152.147 84.405C152.147 84.873 152.226 85.4971 152.226 86.1212V93.0639H147.262V93.1419ZM151.753 77.0722C151.753 78.5544 152.147 79.8025 152.856 80.5826C153.644 81.4407 154.668 81.8307 156.008 81.8307C157.347 81.8307 158.372 81.4407 159.159 80.5826C159.947 79.7245 160.263 78.5544 160.263 77.0722C160.263 75.59 159.869 74.3419 159.081 73.4838C158.293 72.6257 157.268 72.1577 155.929 72.1577C154.589 72.1577 153.565 72.6257 152.856 73.4838C152.147 74.4199 151.753 75.59 151.753 77.0722ZM130.637 68.7253V77.5403C130.637 79.0224 130.952 80.1145 131.503 80.7386C132.055 81.3627 133.001 81.6747 134.34 81.6747C135.679 81.6747 136.625 81.3627 137.177 80.7386C137.728 80.1145 138.043 79.0224 138.043 77.5403V68.7253H143.007V77.5403C143.007 80.5046 142.298 82.6888 140.88 84.0929C139.461 85.4971 137.334 86.1992 134.419 86.1992C131.425 86.1992 129.219 85.4971 127.879 84.0929C126.461 82.6888 125.752 80.5046 125.752 77.5403V68.7253H130.637ZM108.417 82.5328L112.199 80.5826C112.357 81.2066 112.672 81.7527 113.224 82.1427C113.775 82.5328 114.484 82.6888 115.272 82.6888C116.06 82.6888 116.691 82.5328 117.163 82.2207C117.636 81.9087 117.873 81.5187 117.873 81.0506C117.873 80.2705 117.085 79.5685 115.43 79.0224C114.957 78.8664 114.484 78.7104 114.248 78.6324C112.278 77.8523 110.86 77.1502 110.151 76.3701C109.363 75.59 108.969 74.6539 108.969 73.5618C108.969 71.9237 109.599 70.5975 110.939 69.5834C112.278 68.5693 113.933 68.0232 116.06 68.0232C117.557 68.0232 118.897 68.3353 120 68.9593C121.103 69.5834 121.891 70.4415 122.442 71.5336L118.818 73.3278C118.66 72.7037 118.266 72.2357 117.794 71.9237C117.321 71.6116 116.691 71.4556 115.981 71.4556C115.272 71.4556 114.642 71.6116 114.248 71.9237C113.775 72.2357 113.539 72.6257 113.539 73.0938C113.539 73.9519 114.642 74.7319 116.927 75.434C117.163 75.512 117.4 75.59 117.557 75.59C119.448 76.2141 120.709 76.9162 121.497 77.6963C122.285 78.4763 122.679 79.4905 122.679 80.7386C122.679 82.3768 122.048 83.7029 120.709 84.717C119.37 85.7311 117.636 86.1992 115.43 86.1992C113.697 86.1992 112.199 85.8871 110.939 85.2631C109.678 84.561 108.89 83.7029 108.417 82.5328Z" fill="#034EA1"/>
<path fill-rule="evenodd" clip-rule="evenodd" d="M47.4327 94C73.6704 94 94.8654 72.9378 94.8654 47.039C94.8654 21.1402 73.6704 0 47.4327 0C21.2738 0 0 21.0622 0 46.961C0 72.8598 21.2738 94 47.4327 94Z" fill="#EC1C24"/>
<path fill-rule="evenodd" clip-rule="evenodd" d="M16.8615 85.8091C16.31 85.029 15.916 84.0149 16.0736 83.1568C23.9528 84.249 35.6928 78.3203 34.3533 63.4208C33.329 51.8755 29.547 33.7776 31.5956 23.7145C35.22 5.53859 50.9784 1.40415 60.7486 1.56017C61.9305 1.56017 67.8398 1.17013 68.7853 1.32615C68.8641 1.32615 71.7794 0.624071 74.4584 2.34025C72.8825 2.34025 71.6219 2.96432 69.9672 3.04233C67.3671 3.12034 64.2154 2.8083 61.7729 3.35436C36.0867 9.43901 38.4505 28.317 40.6566 47.195C41.7597 56.556 42.6264 65.995 40.0263 73.4058C39.002 76.2141 37.111 78.7104 34.3533 80.6606C31.5956 82.6108 27.8924 84.0929 23.48 85.029C21.0375 85.4971 19.4616 85.8091 17.8858 85.8091C17.4918 85.8091 17.1767 85.8091 16.8615 85.8091ZM24.1104 90.0216C22.6921 89.4755 21.2739 88.8515 20.0132 88.1494C21.1163 88.0714 22.3769 87.9154 23.9528 87.6033C28.8379 86.6672 32.7775 85.029 35.8503 82.8448C39.0808 80.5826 41.287 77.6963 42.4689 74.3419C45.3054 66.3071 44.3599 56.634 43.2568 46.883C41.4446 31.3593 39.4748 15.8357 54.918 8.50291C62.482 4.91453 68.9429 4.52449 76.9009 4.60249C77.2949 5.22656 77.8464 6.24067 78.1616 7.09876C71.6218 5.92864 65.3185 7.33278 60.0394 10.9212C47.2752 19.5021 49.9541 34.4017 51.7663 49.4573C52.7906 58.1162 53.027 66.9311 51.136 74.1079C50.1117 77.8523 47.7479 81.0506 43.9659 83.5469C37.8989 87.6033 31.044 89.0075 24.1104 90.0216ZM78.9495 11.2332C70.8339 9.98507 59.0939 16.0697 60.4334 30.8913C61.4577 41.6564 64.1366 55.0739 63.8215 64.9029C63.0335 89.0075 41.0506 93.2979 33.6442 92.8299C33.4078 92.8299 31.3592 92.2058 29.2318 91.5817C36.5595 90.4896 41.6022 88.3054 45.3842 85.8091C49.6389 82.9228 52.3966 79.2564 53.5785 74.888C55.6271 67.1651 55.3907 58.1162 54.2876 49.2232C52.3966 32.9975 49.6389 17.0058 67.3671 10.1411C70.6763 8.89295 75.1675 8.73693 78.7131 9.51702C78.7919 10.0631 78.8707 10.6091 78.9495 11.2332Z" fill="white"/>
</g>
<defs>
<clipPath id="clip0_11:99">
<rect width="360" height="94" fill="white"/>
</clipPath>
</defs>
</svg>
