<?xml version="1.0" standalone="no"?>
<!DOCTYPE svg PUBLIC "-//W3C//DTD SVG 20010904//EN"
 "http://www.w3.org/TR/2001/REC-SVG-20010904/DTD/svg10.dtd">
<svg version="1.0" xmlns="http://www.w3.org/2000/svg"
 width="362.000000pt" height="186.000000pt" viewBox="0 0 362.000000 186.000000"
 preserveAspectRatio="xMidYMid meet">

<g transform="translate(0.000000,186.000000) scale(0.100000,-0.100000)"
fill="#000000" stroke="none">
<path d="M2720 1674 l0 -116 -27 6 c-131 28 -228 12 -309 -52 l-47 -37 -65 32
c-166 80 -376 68 -521 -32 l-49 -34 -23 25 c-33 36 -121 84 -182 100 -63 17
-750 20 -862 4 -275 -40 -426 -295 -320 -542 6 -16 -6 -18 -152 -20 l-158 -3
0 -290 0 -290 1795 -3 c987 -1 1800 0 1805 2 7 2 9 237 7 685 l-2 681 -445 0
-445 0 0 -116z m820 -106 c0 -84 -4 -157 -8 -163 -4 -5 -16 -10 -27 -10 -24 0
-33 45 -34 183 l-1 92 -150 0 -150 0 -1 -92 c-1 -51 -5 -127 -9 -168 -5 -61
-7 -44 -8 93 l-2 167 -160 0 -160 0 0 -127 c0 -71 -5 -135 -10 -143 -5 -8 -10
-10 -10 -5 0 6 -17 10 -37 9 -49 -2 -48 -1 -32 -21 8 -10 -6 -1 -30 20 -44 36
-93 57 -139 57 -36 0 -95 -28 -121 -58 -13 -15 -21 -20 -18 -11 7 20 -31 19
-44 -2 -5 -8 -9 -9 -9 -2 0 21 50 71 93 92 30 15 63 21 108 21 63 0 68 -2 202
-68 4 -2 7 62 7 142 l0 146 375 0 375 0 0 -152z m-430 -427 l0 -488 -23 -34
c-14 -22 -38 -39 -64 -48 -40 -14 -44 -14 -100 15 -55 28 -63 37 -143 163
l-85 134 -3 -156 -3 -157 -125 0 -125 0 3 373 c3 408 3 408 65 457 23 18 37
21 81 18 82 -7 114 -39 199 -204 l72 -139 1 278 0 277 125 0 125 0 0 -489z
m330 384 l0 -105 -120 0 -120 0 0 105 0 105 120 0 120 0 0 -105z m-1928 -45
c29 -11 73 -38 98 -61 28 -26 35 -35 18 -25 -17 10 -38 14 -53 10 l-25 -6 23
-18 c12 -10 -7 -4 -43 13 l-64 32 -416 0 c-395 0 -418 -1 -472 -21 -31 -11
-54 -16 -51 -11 4 6 0 8 -10 4 -9 -3 -18 -1 -20 6 -3 9 -9 9 -26 0 -28 -17
-36 -16 -21 3 17 20 89 62 132 76 33 12 656 28 805 22 39 -2 95 -13 125 -24z
m685 -25 c37 -14 78 -34 91 -44 l24 -17 -44 2 c-24 1 -63 9 -87 18 -96 37
-248 27 -319 -20 -18 -12 -27 -13 -36 -4 -8 8 -6 10 9 5 15 -5 17 -4 6 3 -9 6
-23 7 -38 1 -32 -12 -29 -5 9 23 90 64 262 78 385 33z m-10 -80 c55 -22 135
-109 159 -172 15 -41 18 -89 22 -340 l3 -292 -120 -3 -120 -3 -3 130 -3 130
-77 3 -78 3 0 -136 0 -135 -125 0 -125 0 0 270 c0 152 5 291 11 318 5 28 25
74 42 103 64 106 158 153 292 145 44 -2 99 -12 122 -21z m-666 -17 c64 -37
113 -95 138 -162 43 -115 20 -219 -67 -306 -64 -63 -100 -78 -209 -87 l-72 -6
-3 -116 -3 -116 -122 -3 -123 -3 0 291 0 290 -154 0 c-85 0 -157 -4 -161 -9
-3 -5 39 -46 94 -90 55 -44 108 -93 119 -108 80 -116 43 -265 -81 -331 l-52
-27 -328 -5 -327 -5 0 133 0 132 254 0 c152 0 257 4 261 10 3 5 -41 48 -99 95
-84 69 -108 95 -125 135 -57 133 8 266 149 304 45 13 127 15 460 13 l405 -2
46 -27z m750 15 c13 -16 12 -17 -3 -4 -10 7 -18 15 -18 17 0 8 8 3 21 -13z
m1167 -400 l2 -413 -120 0 -120 0 0 415 0 416 118 -3 117 -3 3 -412z"/>
<path d="M2007 1174 c-33 -18 -47 -50 -47 -105 l0 -39 91 0 92 0 -5 51 c-8 82
-71 126 -131 93z"/>
<path d="M1312 1161 c-9 -5 -12 -29 -10 -82 l3 -74 43 -3 c36 -3 47 1 72 27
32 31 37 55 19 94 -18 39 -91 61 -127 38z"/>
</g>
</svg>
