<svg xmlns="http://www.w3.org/2000/svg" width="362" height="186" viewBox="0 0 362 186" version="1.1"><path d="M 271.798 15.750 C 271.687 20.563, 271.581 25.768, 271.562 27.317 C 271.529 30.023, 271.389 30.102, 268.014 29.317 C 256.459 26.630, 242.346 29.745, 236.139 36.352 L 233.889 38.747 228.694 35.951 C 211.407 26.646, 190.868 28.116, 172.341 39.984 C 170.377 41.243, 169.840 41.067, 166.389 38.036 C 164.302 36.204, 159.648 33.309, 156.047 31.603 L 149.500 28.500 105.500 28.500 C 64.991 28.500, 61.064 28.650, 56 30.387 C 32.244 38.536, 22.030 60.895, 31.634 83.724 C 32.025 84.654, 28.337 85.015, 16.325 85.224 L 0.500 85.500 0.500 114.500 L 0.500 143.500 180.750 143.753 L 361 144.005 361 75.503 L 361 7 316.500 7 L 272 7 271.798 15.750 M 279.667 14.667 C 278.225 16.109, 278.923 42.756, 280.417 43.330 C 282.558 44.151, 283 41.857, 283 29.918 L 283 19 299 19 L 315 19 315.157 34.250 C 315.325 50.504, 316.604 45.294, 316.876 27.250 L 317 19 332 19 L 347 19 347.118 28.750 C 347.265 40.849, 347.873 43.500, 350.500 43.500 C 353.694 43.500, 353.969 42.261, 353.985 27.750 L 354 14 317.167 14 C 296.908 14, 280.033 14.300, 279.667 14.667 M 285.962 50.750 L 285.924 78.500 279.140 65.254 C 270.055 47.516, 266.473 44, 257.482 44 C 245.289 44, 244.565 46.601, 244.194 91.750 L 243.888 129 256.444 129 L 269 129 269 114 C 269 97.127, 269.162 96.824, 273.930 104.778 C 287.414 127.268, 294.905 133.203, 303.923 128.540 C 311.162 124.796, 310.992 126.162, 310.996 71.750 L 311 23 298.500 23 L 286 23 285.962 50.750 M 320 33.500 L 320 44 332 44 L 344 44 344 33.500 L 344 23 332 23 L 320 23 320 33.500 M 96.500 35.977 C 63.142 36.511, 61.235 36.644, 55.841 38.806 C 50.296 41.030, 44.996 45.088, 49.508 43.656 C 52.268 42.780, 65.904 41.982, 63.782 42.821 C 62.837 43.194, 80.084 43.364, 102.107 43.197 C 135.485 42.944, 143.006 43.144, 147.289 44.400 C 150.115 45.228, 152.631 45.702, 152.880 45.453 C 153.129 45.204, 152.782 45, 152.108 45 C 151.434 45, 151.134 44.592, 151.442 44.093 C 151.751 43.595, 151.153 43.409, 150.114 43.680 C 149.076 43.952, 147.993 43.798, 147.709 43.337 C 146.763 41.807, 156.443 42.543, 160 44.271 L 163.500 45.972 160.500 43.488 C 154.444 38.471, 143.112 34.763, 135.201 35.208 C 133.165 35.323, 115.750 35.669, 96.500 35.977 M 248.500 37.892 C 244.592 39.698, 240 43.164, 240 44.308 C 240 44.623, 241.217 44.250, 242.704 43.478 C 245.895 41.823, 246.830 42.295, 244.919 44.597 C 244.168 45.502, 245.275 45.075, 247.378 43.648 C 252.285 40.317, 256.970 39.468, 262.273 40.948 C 264.598 41.597, 268.075 42.326, 270 42.568 C 271.925 42.810, 274.625 43.243, 276 43.530 L 278.500 44.051 276 42.037 C 269.015 36.409, 255.966 34.442, 248.500 37.892 M 191.500 39.345 C 187.291 40.733, 181 43.783, 181 44.435 C 181 44.646, 183.342 44.201, 186.203 43.446 C 191.784 41.974, 193.984 42.295, 189.639 43.947 C 188.187 44.499, 187 45.183, 187 45.467 C 187 45.751, 188.912 45.200, 191.250 44.242 C 197.683 41.605, 212.899 41.905, 219.500 44.799 C 222.281 46.018, 223.639 46.327, 222.559 45.495 C 221.491 44.673, 220.227 44, 219.750 44 C 219.273 44, 219.147 43.572, 219.470 43.048 C 219.816 42.489, 221.903 42.887, 224.529 44.013 C 231.513 47.006, 229.772 45.258, 222.250 41.724 C 214.388 38.030, 199.078 36.846, 191.500 39.345 M 195.500 46.938 C 185.215 49.453, 176.917 57.791, 173.612 68.932 C 172.298 73.358, 172 79.510, 172 102.182 L 172 130 184.500 130 L 197 130 197 116.458 L 197 102.916 204.750 103.208 L 212.500 103.500 212.664 116.500 L 212.828 129.500 215.914 129.444 C 217.611 129.414, 223.050 129.301, 228 129.194 L 237 129 237 101.589 C 237 55.135, 225.251 39.663, 195.500 46.938 M 61 48.577 C 39.019 54.562, 37.895 75.529, 58.641 92.593 C 71.847 103.455, 72.555 103, 42.441 103 L 17 103 17 116.597 L 17 130.193 47.750 129.755 C 83.309 129.248, 86.344 128.709, 93.402 121.651 C 105.050 110.003, 102.170 97.189, 84.604 82.500 L 73.842 73.500 89.171 73 C 97.602 72.725, 104.838 72.639, 105.250 72.809 C 105.662 72.979, 106 85.916, 106 101.559 L 106 130 118.500 130 L 131 130 131 118.144 L 131 106.289 138.250 105.706 C 170.424 103.123, 179.482 64.812, 151.500 49.665 C 146.201 46.797, 70.864 45.891, 61 48.577 M 320 88.468 L 320 130 332.011 130 L 344.022 130 343.761 88.750 L 343.500 47.500 331.750 47.218 L 320 46.937 320 88.468 M 198.957 69.834 C 197.228 71.234, 196.581 73.009, 196.222 77.334 L 195.752 83 205.015 83 L 214.279 83 213.668 77.845 C 212.613 68.936, 205.111 64.851, 198.957 69.834 M 131.075 70.410 C 130.359 71.272, 130.020 74.478, 130.202 78.660 L 130.500 85.500 135.399 85.428 C 144.164 85.299, 147.899 77.745, 142.077 71.923 C 138.837 68.683, 133.156 67.902, 131.075 70.410" stroke="none" fill="#e70e19" fill-rule="evenodd"/><path d="M 271.424 7.338 C 271.141 8.075, 271.065 12.237, 271.254 16.588 L 271.598 24.500 271.799 15.750 L 272 7 316.500 7 L 361 7 361 75.667 C 361 113.433, 361.242 144.092, 361.537 143.797 C 362.246 143.087, 362.143 8.041, 361.432 6.890 C 360.461 5.319, 272.030 5.759, 271.424 7.338 M 279.667 14.667 C 278.225 16.109, 278.923 42.756, 280.417 43.330 C 282.558 44.151, 283 41.857, 283 29.918 L 283 19 299 19 L 315 19 315.157 34.250 C 315.325 50.504, 316.604 45.294, 316.876 27.250 L 317 19 332 19 L 347 19 347.118 28.750 C 347.265 40.849, 347.873 43.500, 350.500 43.500 C 353.694 43.500, 353.969 42.261, 353.985 27.750 L 354 14 317.167 14 C 296.908 14, 280.033 14.300, 279.667 14.667 M 285.962 50.750 L 285.924 78.500 279.140 65.254 C 270.055 47.516, 266.473 44, 257.482 44 C 245.289 44, 244.565 46.601, 244.194 91.750 L 243.888 129 256.444 129 L 269 129 269 114 C 269 97.127, 269.162 96.824, 273.930 104.778 C 287.414 127.268, 294.905 133.203, 303.923 128.540 C 311.162 124.796, 310.992 126.162, 310.996 71.750 L 311 23 298.500 23 L 286 23 285.962 50.750 M 320 33.500 L 320 44 332 44 L 344 44 344 33.500 L 344 23 332 23 L 320 23 320 33.500 M 96.500 35.977 C 63.142 36.511, 61.235 36.644, 55.841 38.806 C 50.296 41.030, 44.996 45.088, 49.508 43.656 C 52.268 42.780, 65.904 41.982, 63.782 42.821 C 62.837 43.194, 80.084 43.364, 102.107 43.197 C 135.485 42.944, 143.006 43.144, 147.289 44.400 C 150.115 45.228, 152.631 45.702, 152.880 45.453 C 153.129 45.204, 152.782 45, 152.108 45 C 151.434 45, 151.134 44.592, 151.442 44.093 C 151.751 43.595, 151.153 43.409, 150.114 43.680 C 149.076 43.952, 147.993 43.798, 147.709 43.337 C 146.763 41.807, 156.443 42.543, 160 44.271 L 163.500 45.972 160.500 43.488 C 154.444 38.471, 143.112 34.763, 135.201 35.208 C 133.165 35.323, 115.750 35.669, 96.500 35.977 M 248.500 37.892 C 244.592 39.698, 240 43.164, 240 44.308 C 240 44.623, 241.217 44.250, 242.704 43.478 C 245.895 41.823, 246.830 42.295, 244.919 44.597 C 244.168 45.502, 245.275 45.075, 247.378 43.648 C 252.285 40.317, 256.970 39.468, 262.273 40.948 C 264.598 41.597, 268.075 42.326, 270 42.568 C 271.925 42.810, 274.625 43.243, 276 43.530 L 278.500 44.051 276 42.037 C 269.015 36.409, 255.966 34.442, 248.500 37.892 M 191.500 39.345 C 187.291 40.733, 181 43.783, 181 44.435 C 181 44.646, 183.342 44.201, 186.203 43.446 C 191.784 41.974, 193.984 42.295, 189.639 43.947 C 188.187 44.499, 187 45.183, 187 45.467 C 187 45.751, 188.912 45.200, 191.250 44.242 C 197.683 41.605, 212.899 41.905, 219.500 44.799 C 222.281 46.018, 223.639 46.327, 222.559 45.495 C 221.491 44.673, 220.227 44, 219.750 44 C 219.273 44, 219.147 43.572, 219.470 43.048 C 219.816 42.489, 221.903 42.887, 224.529 44.013 C 231.513 47.006, 229.772 45.258, 222.250 41.724 C 214.388 38.030, 199.078 36.846, 191.500 39.345 M 195.500 46.938 C 185.215 49.453, 176.917 57.791, 173.612 68.932 C 172.298 73.358, 172 79.510, 172 102.182 L 172 130 184.500 130 L 197 130 197 116.458 L 197 102.916 204.750 103.208 L 212.500 103.500 212.664 116.500 L 212.828 129.500 215.914 129.444 C 217.611 129.414, 223.050 129.301, 228 129.194 L 237 129 237 101.589 C 237 55.135, 225.251 39.663, 195.500 46.938 M 61 48.577 C 39.019 54.562, 37.895 75.529, 58.641 92.593 C 71.847 103.455, 72.555 103, 42.441 103 L 17 103 17 116.597 L 17 130.193 47.750 129.755 C 83.309 129.248, 86.344 128.709, 93.402 121.651 C 105.050 110.003, 102.170 97.189, 84.604 82.500 L 73.842 73.500 89.171 73 C 97.602 72.725, 104.838 72.639, 105.250 72.809 C 105.662 72.979, 106 85.916, 106 101.559 L 106 130 118.500 130 L 131 130 131 118.144 L 131 106.289 138.250 105.706 C 170.424 103.123, 179.482 64.812, 151.500 49.665 C 146.201 46.797, 70.864 45.891, 61 48.577 M 320 88.468 L 320 130 332.011 130 L 344.022 130 343.761 88.750 L 343.500 47.500 331.750 47.218 L 320 46.937 320 88.468 M 198.957 69.834 C 197.228 71.234, 196.581 73.009, 196.222 77.334 L 195.752 83 205.015 83 L 214.279 83 213.668 77.845 C 212.613 68.936, 205.111 64.851, 198.957 69.834 M 131.075 70.410 C 130.359 71.272, 130.020 74.478, 130.202 78.660 L 130.500 85.500 135.399 85.428 C 144.164 85.299, 147.899 77.745, 142.077 71.923 C 138.837 68.683, 133.156 67.902, 131.075 70.410 M 82.646 163.375 C 78.248 177.097, 78.276 176.196, 82.250 175.813 C 84.479 175.598, 85.810 174.793, 86.487 173.250 C 87.936 169.947, 93.272 170.107, 94.818 173.500 C 99.723 184.266, 102.662 175.490, 98.417 162.752 L 94.835 152 90.564 152 L 86.293 152 82.646 163.375 M 103 155 C 103 157.521, 103.393 158, 105.461 158 C 107.866 158, 107.929 158.199, 108.211 166.750 L 108.500 175.500 111.500 175.500 L 114.500 175.500 114.789 166.750 L 115.078 158 118.039 158 C 120.662 158, 121 157.658, 121 155 L 121 152 112 152 L 103 152 103 155 M 125.060 162.702 C 120.898 176.379, 120.902 175.500, 125 175.500 C 127.868 175.500, 128.558 175.094, 128.820 173.250 C 129.308 169.808, 135.670 170.002, 137 173.500 C 137.902 175.874, 142.553 177.114, 144.237 175.430 C 144.551 175.116, 143.126 169.828, 141.070 163.680 L 137.333 152.500 132.840 152.202 L 128.347 151.905 125.060 162.702 M 150.750 153.080 C 139.986 159.350, 147.248 177.864, 159.565 175.554 C 164.873 174.558, 164.818 168.831, 159.508 169.692 C 154.775 170.461, 153 168.772, 153 163.500 C 153 158.228, 154.665 156.659, 159.327 157.534 C 163.161 158.253, 165.814 154.764, 162.857 152.890 C 160.991 151.708, 152.888 151.835, 150.750 153.080 M 169.060 162.702 C 164.898 176.379, 164.902 175.500, 169 175.500 C 171.868 175.500, 172.558 175.094, 172.820 173.250 C 173.308 169.808, 179.670 170.002, 181 173.500 C 181.902 175.874, 186.553 177.114, 188.237 175.430 C 188.551 175.116, 187.126 169.828, 185.070 163.680 L 181.333 152.500 176.840 152.202 L 172.347 151.905 169.060 162.702 M 190.432 153.318 C 188.624 158.029, 190.544 175.506, 192.907 175.840 C 205.713 177.650, 214.836 166.310, 208.434 156.540 C 205.740 152.428, 191.735 149.922, 190.432 153.318 M 214.218 163.750 L 214.500 175.500 217.500 175.500 L 220.500 175.500 220.782 163.750 L 221.063 152 217.500 152 L 213.937 152 214.218 163.750 M 226.455 154.455 C 222.333 158.577, 223.623 162.747, 230.033 166.017 C 235.648 168.882, 235.188 170.419, 228.937 169.679 C 222.536 168.921, 221.559 173.598, 227.750 175.363 C 239.059 178.587, 245.318 167.201, 235.424 161.403 C 230.260 158.376, 230.593 155.965, 235.919 157.822 C 238.765 158.814, 239.036 158.706, 239.630 156.339 C 240.876 151.375, 230.953 149.956, 226.455 154.455 M 242 155 C 242 157.667, 242.333 158, 245 158 L 248 158 248 167 L 248 176 251 176 L 254 176 254 167 L 254 158 257 158 C 259.667 158, 260 157.667, 260 155 L 260 152 251 152 L 242 152 242 155 M 264.060 162.702 C 259.898 176.379, 259.902 175.500, 264 175.500 C 266.868 175.500, 267.558 175.094, 267.820 173.250 C 268.308 169.808, 274.670 170.002, 276 173.500 C 276.902 175.874, 281.553 177.114, 283.237 175.430 C 283.551 175.116, 282.126 169.828, 280.070 163.680 L 276.333 152.500 271.840 152.202 L 267.347 151.905 264.060 162.702 M 197 163.934 C 197 169.201, 197.247 170, 198.878 170 C 203.955 170, 204.785 158.763, 199.750 158.184 C 197.017 157.869, 197 157.906, 197 163.934" stroke="none" fill="#f9cb47" fill-rule="evenodd"/></svg>