<svg xmlns="http://www.w3.org/2000/svg" width="288" height="175" viewBox="0 0 288 175" version="1.1"><path d="M 0 87.503 L 0 175.007 144.250 174.753 L 288.500 174.500 288.755 87.250 L 289.011 0 144.505 0 L 0 0 0 87.503 M 0.478 88 C 0.478 136.125, 0.601 155.813, 0.750 131.750 C 0.899 107.688, 0.899 68.313, 0.750 44.250 C 0.601 20.188, 0.478 39.875, 0.478 88 M 11.229 8.669 C 10.530 8.951, 9.292 10.468, 8.479 12.041 C 7.214 14.488, 7 25.382, 7 87.500 C 7 164.400, 7.014 164.640, 11.545 166.379 C 12.435 166.720, 72.223 167, 144.407 167 L 275.651 167 277.826 164.686 L 280 162.371 280 87.360 L 280 12.349 277.686 10.174 L 275.371 8 143.936 8.079 C 71.646 8.122, 11.928 8.388, 11.229 8.669 M 189.500 31.655 C 155.261 34.385, 119.428 41.390, 96.037 49.927 C 91.406 51.617, 87.500 53, 87.356 53 C 87.213 53, 86.961 50.188, 86.798 46.750 L 86.500 40.500 80.750 40.200 L 75 39.900 75 48.846 L 75 57.792 69.998 61.002 C 63.682 65.054, 56.484 73.003, 54.967 77.600 C 53.649 81.595, 54.325 86.538, 56.597 89.500 C 58.092 91.450, 58.209 91.400, 61.268 87.500 C 65.396 82.237, 72.778 75, 74.018 75 C 74.609 75, 75 80, 75 87.550 L 75 100.100 80.750 99.800 L 86.500 99.500 86.775 83.878 L 87.049 68.256 94.775 64.735 C 117.482 54.385, 151.837 45.743, 185 42.037 C 194.199 41.009, 224.143 39.027, 230.750 39.009 C 233.874 39, 234 38.844, 234 35 L 234 31 213.750 31.168 C 202.613 31.261, 191.700 31.480, 189.500 31.655 M 186 57.850 L 186 64.810 180.186 64.283 C 173.236 63.653, 168.894 65.482, 165.984 70.266 C 161.544 77.568, 162.629 90.475, 168.147 95.993 C 170.548 98.394, 171.995 98.993, 175.327 98.965 C 177.622 98.945, 180.625 98.286, 182 97.500 C 185.240 95.648, 186 95.658, 186 97.555 C 186 98.786, 186.989 99.046, 190.750 98.805 L 195.500 98.500 195.500 75 L 195.500 51.500 190.750 51.195 L 186 50.890 186 57.850 M 102.594 64.041 C 97.871 65.454, 93.279 70.670, 91.976 76.101 C 88.780 89.424, 96.349 99.007, 110 98.922 C 118.247 98.870, 122.426 97.145, 122.828 93.628 C 123.299 89.510, 122.164 88.968, 116.295 90.502 C 108.358 92.578, 103.243 90.755, 101.555 85.250 C 100.868 83.011, 100.918 83, 111.933 83 L 123 83 123 78.401 C 123 66.986, 113.977 60.636, 102.594 64.041 M 142.141 65.009 C 136.920 67.393, 137 67.386, 137 65.500 C 137 64.390, 135.835 64, 132.519 64 C 126.866 64, 126.839 64.098, 127.213 83 L 127.500 97.500 132.344 97.500 L 137.188 97.500 137.344 86.015 L 137.500 74.531 140.363 73.156 C 142.528 72.118, 143.809 72.048, 145.613 72.870 C 147.936 73.928, 148 74.278, 148 85.979 L 148 98 153 98 L 158 98 158 84.016 C 158 70.141, 157.979 70.009, 155.250 67.088 C 151.571 63.150, 147.594 62.519, 142.141 65.009 M 207.823 63.651 C 204.300 64.267, 202.782 66.239, 203.178 69.690 C 203.398 71.610, 203.975 72.374, 205 72.103 C 209.447 70.927, 218.134 70.866, 219.502 72.002 C 222.237 74.272, 221.265 76, 217.250 76.006 C 207.108 76.021, 200 80.925, 200 87.907 C 200 96.551, 208.846 101.367, 216.956 97.140 C 220.349 95.371, 221 95.280, 221 96.571 C 221 97.783, 222.009 98.045, 225.750 97.805 L 230.500 97.500 230.782 85.036 C 231.102 70.929, 230.264 67.705, 225.654 65.321 C 222.550 63.716, 212.722 62.795, 207.823 63.651 M 103.455 72.455 C 99.725 76.184, 100.361 77, 107 77 C 112.165 77, 113 76.743, 113 75.155 C 113 72.906, 109.970 70, 107.626 70 C 106.682 70, 104.805 71.105, 103.455 72.455 M 178.315 72.006 C 175.231 73.250, 174 76.083, 174 81.934 C 174 89.147, 176.895 91.939, 182.750 90.370 C 184.869 89.802, 185 89.250, 185 80.883 C 185 75.998, 184.587 72, 184.082 72 C 183.577 72, 182.564 71.803, 181.832 71.563 C 181.099 71.322, 179.517 71.522, 178.315 72.006 M 217.500 82.491 C 216.950 82.675, 215.316 83.084, 213.869 83.402 C 211.229 83.980, 209.659 86.948, 210.641 89.506 C 211.390 91.460, 215.533 92.170, 218.443 90.844 C 220.539 89.889, 221 88.987, 221 85.839 C 221 82.180, 220.336 81.545, 217.500 82.491 M 188.997 119.750 C 188.994 122.347, 188.738 122.502, 184.384 122.530 C 180.785 122.553, 179.361 123.071, 177.887 124.891 C 175.608 127.705, 175.456 131.778, 177.520 134.725 C 178.870 136.652, 179.933 136.889, 187.020 136.843 L 195 136.790 195 126.895 L 195 117 192 117 C 189.395 117, 189 117.362, 188.997 119.750 M 98.290 120 C 98.002 121.100, 97.369 122, 96.883 122 C 96.398 122, 96 122.900, 96 124 C 96 125.100, 96.450 126, 97 126 C 97.550 126, 98 127.768, 98 129.929 C 98 135.214, 100.113 137.186, 105.364 136.801 C 108.381 136.581, 109.574 136.021, 109.822 134.711 C 110.101 133.242, 109.699 133.038, 107.581 133.569 C 105.125 134.185, 105 134.020, 105 130.178 C 105 126.757, 105.343 126.090, 107.240 125.820 C 108.472 125.644, 109.630 124.713, 109.813 123.750 C 110.072 122.391, 109.461 122, 107.073 122 C 104.667 122, 104 121.566, 104 120 C 104 118.514, 103.333 118, 101.406 118 C 99.654 118, 98.643 118.649, 98.290 120 M 77.250 122.662 C 76.563 122.940, 76 123.801, 76 124.576 C 76 125.620, 77.201 125.922, 80.642 125.742 C 83.642 125.586, 85.440 125.942, 85.725 126.750 C 86.029 127.610, 84.963 128, 82.306 128 C 78.164 128, 74 130.249, 74 132.485 C 74 135.712, 76.933 136.923, 84.532 136.835 L 92 136.748 92 130.534 C 92 124.847, 91.785 124.223, 89.453 123.161 C 86.913 122.003, 79.621 121.705, 77.250 122.662 M 115.250 122.609 C 114.563 122.916, 114 123.854, 114 124.695 C 114 125.903, 114.742 126.083, 117.544 125.558 C 121.506 124.814, 125.333 125.653, 124.456 127.072 C 124.140 127.582, 122.304 128, 120.375 128 C 115.646 128, 113 129.583, 113 132.413 C 113 136.041, 114.919 136.867, 123.271 136.834 L 131 136.804 131 131.025 C 131 126.971, 130.527 124.852, 129.416 123.930 C 127.785 122.577, 117.476 121.615, 115.250 122.609 M 138.400 123.428 C 130.082 127.049, 133.860 137, 143.553 137 C 149.125 137, 151 136.218, 151 133.893 C 151 131.673, 150.632 131.588, 148.035 133.210 C 145.551 134.761, 140.660 133.187, 140.177 130.681 C 139.549 127.419, 142.031 125.743, 146.711 126.271 C 150.322 126.678, 151 126.476, 151 124.994 C 151 121.949, 143.841 121.059, 138.400 123.428 M 157.250 122.662 C 156.563 122.940, 156 123.854, 156 124.695 C 156 125.888, 156.738 126.084, 159.366 125.591 C 162.933 124.922, 166 125.623, 166 127.107 C 166 127.598, 164.300 128, 162.223 128 C 158.153 128, 154 130.265, 154 132.485 C 154 135.680, 156.880 136.858, 164.500 136.779 L 172 136.701 172 130.511 C 172 124.848, 171.783 124.222, 169.453 123.161 C 166.913 122.003, 159.621 121.705, 157.250 122.662 M 203 122.709 C 197.671 124.669, 196.264 131.020, 200.314 134.826 C 203.761 138.063, 212.183 137.908, 215.545 134.545 C 218.782 131.309, 218.644 128.491, 215.077 124.923 C 212.817 122.663, 211.286 122.018, 208.327 122.079 C 206.222 122.122, 203.825 122.406, 203 122.709 M 182.667 126.667 C 181.386 127.948, 182.014 131.908, 183.642 132.820 C 186.702 134.532, 189 133.058, 189 129.383 C 189 126.335, 188.719 126, 186.167 126 C 184.608 126, 183.033 126.300, 182.667 126.667 M 204.390 127.427 C 204.088 128.212, 203.990 129.900, 204.171 131.177 C 204.432 133.018, 205.122 133.500, 207.500 133.500 C 210.245 133.500, 210.526 133.181, 210.810 129.750 C 211.108 126.158, 210.990 126, 208.029 126 C 206.273 126, 204.701 126.617, 204.390 127.427 M 82.080 131.097 C 80.385 131.773, 79.976 132.376, 80.715 133.115 C 82.179 134.579, 86.500 133.809, 86.500 132.083 C 86.500 130.229, 85.065 129.909, 82.080 131.097 M 120.750 130.689 C 119.787 130.941, 119 131.819, 119 132.640 C 119 134.828, 124.387 134.003, 124.815 131.750 C 125.143 130.019, 124.229 129.780, 120.750 130.689 M 161.481 131.400 C 159.682 132.723, 159.656 132.918, 161.192 133.513 C 163.692 134.483, 166.500 133.683, 166.500 132 C 166.500 129.963, 163.861 129.648, 161.481 131.400" stroke="none" fill="#ffffff" fill-rule="evenodd"/><path d="M 62.500 111.155 C 58.455 113.367, 58 114.994, 58 127.237 C 58 138.489, 58.125 139.215, 60.455 141.545 L 62.909 144 146.382 144 L 229.855 144 231.927 141.365 C 233.746 139.053, 234 137.348, 234 127.447 C 234 121.241, 233.720 115.435, 233.379 114.545 C 231.626 109.977, 232.034 109.998, 145.800 110.030 C 88.886 110.052, 63.900 110.389, 62.500 111.155 M 188.997 119.750 C 188.994 122.347, 188.738 122.502, 184.384 122.530 C 180.785 122.553, 179.361 123.071, 177.887 124.891 C 175.608 127.705, 175.456 131.778, 177.520 134.725 C 178.870 136.652, 179.933 136.889, 187.020 136.843 L 195 136.790 195 126.895 L 195 117 192 117 C 189.395 117, 189 117.362, 188.997 119.750 M 98.290 120 C 98.002 121.100, 97.369 122, 96.883 122 C 96.398 122, 96 122.900, 96 124 C 96 125.100, 96.450 126, 97 126 C 97.550 126, 98 127.768, 98 129.929 C 98 135.214, 100.113 137.186, 105.364 136.801 C 108.381 136.581, 109.574 136.021, 109.822 134.711 C 110.101 133.242, 109.699 133.038, 107.581 133.569 C 105.125 134.185, 105 134.020, 105 130.178 C 105 126.757, 105.343 126.090, 107.240 125.820 C 108.472 125.644, 109.630 124.713, 109.813 123.750 C 110.072 122.391, 109.461 122, 107.073 122 C 104.667 122, 104 121.566, 104 120 C 104 118.514, 103.333 118, 101.406 118 C 99.654 118, 98.643 118.649, 98.290 120 M 77.250 122.662 C 76.563 122.940, 76 123.801, 76 124.576 C 76 125.620, 77.201 125.922, 80.642 125.742 C 83.642 125.586, 85.440 125.942, 85.725 126.750 C 86.029 127.610, 84.963 128, 82.306 128 C 78.164 128, 74 130.249, 74 132.485 C 74 135.712, 76.933 136.923, 84.532 136.835 L 92 136.748 92 130.534 C 92 124.847, 91.785 124.223, 89.453 123.161 C 86.913 122.003, 79.621 121.705, 77.250 122.662 M 115.250 122.609 C 114.563 122.916, 114 123.854, 114 124.695 C 114 125.903, 114.742 126.083, 117.544 125.558 C 121.506 124.814, 125.333 125.653, 124.456 127.072 C 124.140 127.582, 122.304 128, 120.375 128 C 115.646 128, 113 129.583, 113 132.413 C 113 136.041, 114.919 136.867, 123.271 136.834 L 131 136.804 131 131.025 C 131 126.971, 130.527 124.852, 129.416 123.930 C 127.785 122.577, 117.476 121.615, 115.250 122.609 M 138.400 123.428 C 130.082 127.049, 133.860 137, 143.553 137 C 149.125 137, 151 136.218, 151 133.893 C 151 131.673, 150.632 131.588, 148.035 133.210 C 145.551 134.761, 140.660 133.187, 140.177 130.681 C 139.549 127.419, 142.031 125.743, 146.711 126.271 C 150.322 126.678, 151 126.476, 151 124.994 C 151 121.949, 143.841 121.059, 138.400 123.428 M 157.250 122.662 C 156.563 122.940, 156 123.854, 156 124.695 C 156 125.888, 156.738 126.084, 159.366 125.591 C 162.933 124.922, 166 125.623, 166 127.107 C 166 127.598, 164.300 128, 162.223 128 C 158.153 128, 154 130.265, 154 132.485 C 154 135.680, 156.880 136.858, 164.500 136.779 L 172 136.701 172 130.511 C 172 124.848, 171.783 124.222, 169.453 123.161 C 166.913 122.003, 159.621 121.705, 157.250 122.662 M 203 122.709 C 197.671 124.669, 196.264 131.020, 200.314 134.826 C 203.761 138.063, 212.183 137.908, 215.545 134.545 C 218.782 131.309, 218.644 128.491, 215.077 124.923 C 212.817 122.663, 211.286 122.018, 208.327 122.079 C 206.222 122.122, 203.825 122.406, 203 122.709 M 182.667 126.667 C 181.386 127.948, 182.014 131.908, 183.642 132.820 C 186.702 134.532, 189 133.058, 189 129.383 C 189 126.335, 188.719 126, 186.167 126 C 184.608 126, 183.033 126.300, 182.667 126.667 M 204.390 127.427 C 204.088 128.212, 203.990 129.900, 204.171 131.177 C 204.432 133.018, 205.122 133.500, 207.500 133.500 C 210.245 133.500, 210.526 133.181, 210.810 129.750 C 211.108 126.158, 210.990 126, 208.029 126 C 206.273 126, 204.701 126.617, 204.390 127.427 M 82.080 131.097 C 80.385 131.773, 79.976 132.376, 80.715 133.115 C 82.179 134.579, 86.500 133.809, 86.500 132.083 C 86.500 130.229, 85.065 129.909, 82.080 131.097 M 120.750 130.689 C 119.787 130.941, 119 131.819, 119 132.640 C 119 134.828, 124.387 134.003, 124.815 131.750 C 125.143 130.019, 124.229 129.780, 120.750 130.689 M 161.481 131.400 C 159.682 132.723, 159.656 132.918, 161.192 133.513 C 163.692 134.483, 166.500 133.683, 166.500 132 C 166.500 129.963, 163.861 129.648, 161.481 131.400" stroke="none" fill="#e42313" fill-rule="evenodd"/><path d="M 11.229 8.669 C 10.530 8.951, 9.292 10.468, 8.479 12.041 C 7.214 14.488, 7 25.382, 7 87.500 C 7 164.400, 7.014 164.640, 11.545 166.379 C 12.435 166.720, 72.223 167, 144.407 167 L 275.651 167 277.826 164.686 L 280 162.371 280 87.360 L 280 12.349 277.686 10.174 L 275.371 8 143.936 8.079 C 71.646 8.122, 11.928 8.388, 11.229 8.669 M 189.500 31.655 C 155.261 34.385, 119.428 41.390, 96.037 49.927 C 91.406 51.617, 87.500 53, 87.356 53 C 87.213 53, 86.961 50.188, 86.798 46.750 L 86.500 40.500 80.750 40.200 L 75 39.900 75 48.846 L 75 57.792 69.998 61.002 C 63.682 65.054, 56.484 73.003, 54.967 77.600 C 53.649 81.595, 54.325 86.538, 56.597 89.500 C 58.092 91.450, 58.209 91.400, 61.268 87.500 C 65.396 82.237, 72.778 75, 74.018 75 C 74.609 75, 75 80, 75 87.550 L 75 100.100 80.750 99.800 L 86.500 99.500 86.775 83.878 L 87.049 68.256 94.775 64.735 C 117.482 54.385, 151.837 45.743, 185 42.037 C 194.199 41.009, 224.143 39.027, 230.750 39.009 C 233.874 39, 234 38.844, 234 35 L 234 31 213.750 31.168 C 202.613 31.261, 191.700 31.480, 189.500 31.655 M 186 57.850 L 186 64.810 180.186 64.283 C 173.236 63.653, 168.894 65.482, 165.984 70.266 C 161.544 77.568, 162.629 90.475, 168.147 95.993 C 170.548 98.394, 171.995 98.993, 175.327 98.965 C 177.622 98.945, 180.625 98.286, 182 97.500 C 185.240 95.648, 186 95.658, 186 97.555 C 186 98.786, 186.989 99.046, 190.750 98.805 L 195.500 98.500 195.500 75 L 195.500 51.500 190.750 51.195 L 186 50.890 186 57.850 M 102.594 64.041 C 97.871 65.454, 93.279 70.670, 91.976 76.101 C 88.780 89.424, 96.349 99.007, 110 98.922 C 118.247 98.870, 122.426 97.145, 122.828 93.628 C 123.299 89.510, 122.164 88.968, 116.295 90.502 C 108.358 92.578, 103.243 90.755, 101.555 85.250 C 100.868 83.011, 100.918 83, 111.933 83 L 123 83 123 78.401 C 123 66.986, 113.977 60.636, 102.594 64.041 M 142.141 65.009 C 136.920 67.393, 137 67.386, 137 65.500 C 137 64.390, 135.835 64, 132.519 64 C 126.866 64, 126.839 64.098, 127.213 83 L 127.500 97.500 132.344 97.500 L 137.188 97.500 137.344 86.015 L 137.500 74.531 140.363 73.156 C 142.528 72.118, 143.809 72.048, 145.613 72.870 C 147.936 73.928, 148 74.278, 148 85.979 L 148 98 153 98 L 158 98 158 84.016 C 158 70.141, 157.979 70.009, 155.250 67.088 C 151.571 63.150, 147.594 62.519, 142.141 65.009 M 207.823 63.651 C 204.300 64.267, 202.782 66.239, 203.178 69.690 C 203.398 71.610, 203.975 72.374, 205 72.103 C 209.447 70.927, 218.134 70.866, 219.502 72.002 C 222.237 74.272, 221.265 76, 217.250 76.006 C 207.108 76.021, 200 80.925, 200 87.907 C 200 96.551, 208.846 101.367, 216.956 97.140 C 220.349 95.371, 221 95.280, 221 96.571 C 221 97.783, 222.009 98.045, 225.750 97.805 L 230.500 97.500 230.782 85.036 C 231.102 70.929, 230.264 67.705, 225.654 65.321 C 222.550 63.716, 212.722 62.795, 207.823 63.651 M 103.455 72.455 C 99.725 76.184, 100.361 77, 107 77 C 112.165 77, 113 76.743, 113 75.155 C 113 72.906, 109.970 70, 107.626 70 C 106.682 70, 104.805 71.105, 103.455 72.455 M 178.315 72.006 C 175.231 73.250, 174 76.083, 174 81.934 C 174 89.147, 176.895 91.939, 182.750 90.370 C 184.869 89.802, 185 89.250, 185 80.883 C 185 75.998, 184.587 72, 184.082 72 C 183.577 72, 182.564 71.803, 181.832 71.563 C 181.099 71.322, 179.517 71.522, 178.315 72.006 M 217.500 82.491 C 216.950 82.675, 215.316 83.084, 213.869 83.402 C 211.229 83.980, 209.659 86.948, 210.641 89.506 C 211.390 91.460, 215.533 92.170, 218.443 90.844 C 220.539 89.889, 221 88.987, 221 85.839 C 221 82.180, 220.336 81.545, 217.500 82.491 M 62.500 111.155 C 58.455 113.367, 58 114.994, 58 127.237 C 58 138.489, 58.125 139.215, 60.455 141.545 L 62.909 144 146.382 144 L 229.855 144 231.927 141.365 C 233.746 139.053, 234 137.348, 234 127.447 C 234 121.241, 233.720 115.435, 233.379 114.545 C 231.626 109.977, 232.034 109.998, 145.800 110.030 C 88.886 110.052, 63.900 110.389, 62.500 111.155" stroke="none" fill="#2b3b73" fill-rule="evenodd"/></svg>