<?xml version="1.0" standalone="no"?>
<!DOCTYPE svg PUBLIC "-//W3C//DTD SVG 20010904//EN"
 "http://www.w3.org/TR/2001/REC-SVG-20010904/DTD/svg10.dtd">
<svg version="1.0" xmlns="http://www.w3.org/2000/svg"
 width="288.000000pt" height="175.000000pt" viewBox="0 0 288.000000 175.000000"
 preserveAspectRatio="xMidYMid meet">

<g transform="translate(0.000000,175.000000) scale(0.100000,-0.100000)"
fill="#000000" stroke="none">
<path d="M100 1650 c-20 -20 -20 -33 -20 -775 0 -742 0 -755 20 -775 20 -20
33 -20 1339 -20 l1320 0 20 26 c21 26 21 33 21 769 0 736 0 743 -21 769 l-20
26 -1320 0 c-1306 0 -1319 0 -1339 -20z m2238 -252 l-3 -43 -195 -7 c-446 -15
-877 -105 -1197 -248 l-73 -32 -2 -157 -3 -156 -57 -3 -58 -3 0 126 c0 69 -2
125 -5 125 -15 0 -70 -50 -111 -102 -26 -32 -51 -58 -55 -58 -14 0 -39 57 -39
90 0 61 58 138 162 214 l37 28 3 86 3 87 60 0 60 0 3 -63 c3 -55 5 -63 20 -57
188 77 531 158 802 189 186 22 197 22 438 24 l213 2 -3 -42z m-383 -398 l0
-235 -48 -3 c-35 -2 -49 1 -53 12 -5 14 -8 14 -29 0 -31 -20 -99 -20 -130 0
-42 28 -60 73 -60 156 0 57 5 83 20 109 38 64 96 88 168 68 l27 -7 0 63 c0 35
3 67 7 71 4 4 28 6 53 4 l45 -3 0 -235z m-782 95 c34 -22 57 -74 57 -129 l0
-46 -105 0 c-98 0 -105 -1 -105 -20 0 -11 9 -29 21 -41 18 -18 29 -21 83 -16
33 3 71 8 84 12 22 7 23 5 20 -31 -3 -35 -7 -40 -38 -51 -19 -7 -60 -12 -90
-12 -121 -2 -196 75 -187 191 9 110 81 174 184 164 28 -2 62 -12 76 -21z m346
14 c51 -18 61 -50 61 -204 l0 -135 -50 0 -50 0 0 113 c0 61 -4 117 -8 123 -12
18 -41 24 -67 14 -24 -9 -24 -12 -27 -127 l-3 -118 -50 0 -50 0 0 165 0 165
48 3 c34 2 49 -1 53 -12 5 -12 11 -12 47 5 50 22 54 22 96 8z m714 0 c66 -18
78 -51 75 -204 l-3 -130 -47 -3 c-37 -2 -48 0 -48 11 0 12 -7 11 -37 -4 -58
-29 -99 -25 -139 15 -27 27 -34 42 -34 74 0 75 64 122 168 122 45 0 56 16 27
40 -14 11 -101 11 -145 -1 -11 -3 -16 6 -18 33 -3 34 -1 38 30 47 45 13 125
13 171 0z m-283 -629 l0 -100 -52 0 c-29 0 -63 -1 -76 -1 -62 -3 -87 90 -35
131 20 16 38 21 65 18 36 -3 38 -2 38 24 0 24 4 28 30 28 l30 0 0 -100z m-910
70 c0 -16 7 -20 30 -20 23 0 30 -4 30 -20 0 -15 -7 -20 -26 -20 -23 0 -25 -3
-22 -37 3 -33 6 -38 26 -35 17 3 22 -2 22 -17 0 -18 -6 -21 -41 -21 -63 0 -79
13 -79 65 0 25 -4 45 -10 45 -5 0 -10 9 -10 20 0 11 5 20 10 20 6 0 10 9 10
20 0 16 7 20 30 20 23 0 30 -4 30 -20z m-130 -40 c15 -15 20 -33 20 -74 l0
-55 -77 0 c-82 0 -113 10 -113 36 0 25 30 53 59 54 14 0 35 4 46 9 l20 9 -20
2 c-11 1 -35 1 -52 0 -23 -2 -33 2 -33 12 0 23 11 27 72 27 45 0 63 -5 78 -20z
m378 4 c18 -13 22 -25 22 -74 l0 -58 -79 0 c-65 -1 -82 2 -96 18 -13 14 -14
23 -6 38 12 22 23 27 86 38 32 6 36 9 20 15 -11 4 -37 5 -57 2 -29 -4 -38 -2
-38 9 0 24 10 28 69 28 35 0 65 -6 79 -16z m206 10 c9 -3 16 -15 16 -25 0 -16
-6 -18 -43 -13 -32 5 -46 2 -56 -9 -30 -37 22 -82 67 -58 29 16 34 14 30 -11
-2 -19 -10 -24 -47 -26 -83 -6 -121 17 -121 72 0 32 18 57 50 69 21 8 85 8
104 1z m218 -12 c6 -6 14 -38 16 -71 l4 -60 -81 0 c-80 0 -111 12 -111 41 0
21 33 48 59 49 14 0 35 5 46 10 15 6 6 8 -33 6 -42 -2 -52 1 -52 14 0 9 3 19
8 23 11 12 130 2 144 -12z m428 3 c94 -49 7 -164 -101 -135 -43 12 -59 33 -59
79 0 61 90 92 160 56z"/>
<path d="M1756 1008 c-24 -34 -21 -123 4 -148 22 -22 42 -25 71 -10 16 9 19
22 19 95 l0 85 -39 0 c-30 0 -44 -6 -55 -22z"/>
<path d="M1053 1040 c-19 -8 -43 -38 -43 -54 0 -3 27 -6 60 -6 53 0 60 2 60
19 0 11 -10 27 -22 35 -25 18 -25 18 -55 6z"/>
<path d="M2165 923 c-41 -6 -57 -22 -53 -52 3 -28 30 -38 74 -27 20 5 24 13
24 46 0 22 -3 39 -7 39 -5 -1 -21 -4 -38 -6z"/>
<path d="M1824 476 c-11 -28 1 -51 27 -54 24 -3 27 1 31 32 4 34 2 36 -24 36
-16 0 -31 -6 -34 -14z"/>
<path d="M810 424 c0 -10 7 -14 22 -12 32 5 35 28 4 28 -17 0 -26 -5 -26 -16z"/>
<path d="M1190 424 c0 -11 8 -14 27 -12 39 4 42 28 4 28 -21 0 -31 -5 -31 -16z"/>
<path d="M1633 442 c-13 -2 -23 -10 -23 -18 0 -19 39 -18 47 1 7 20 4 22 -24
17z"/>
<path d="M2044 466 c-8 -32 12 -58 40 -54 17 2 21 10 21 38 0 31 -3 35 -27 38
-22 3 -29 -2 -34 -22z"/>
</g>
</svg>
